<?xml version="1.0" standalone="no"?>
<!DOCTYPE svg PUBLIC "-//W3C//DTD SVG 1.1//EN" "http://www.w3.org/Graphics/SVG/1.1/DTD/svg11.dtd" >
<svg xmlns="http://www.w3.org/2000/svg">
<metadata></metadata>
<defs>
<font id="tisa_otbold" horiz-adv-x="1167" >
<font-face units-per-em="2048" ascent="1518" descent="-530" />
<missing-glyph horiz-adv-x="440" />
<glyph horiz-adv-x="0" />
<glyph horiz-adv-x="0" />
<glyph horiz-adv-x="682" />
<glyph unicode="&#xd;" horiz-adv-x="440" />
<glyph unicode=" "  horiz-adv-x="440" />
<glyph unicode="&#x09;" horiz-adv-x="440" />
<glyph unicode="&#xa0;" horiz-adv-x="440" />
<glyph unicode="!" horiz-adv-x="798" d="M201 1427q115 33 260 33q52 0 110 -8l-65 -991q-45 -10 -109 -10q-62 0 -110 10zM219 141q0 76 49.5 123t126.5 47t125.5 -45t48.5 -125q0 -86 -48.5 -134t-125.5 -48q-86 0 -131 46.5t-45 135.5z" />
<glyph unicode="&#x22;" horiz-adv-x="946" d="M137 877q15 330 15 589q134 0 262 -32q0 -104 -30.5 -282.5t-64.5 -297.5q-77 0 -182 23zM578 877q14 308 14 589q134 0 262 -32q0 -104 -30.5 -283t-63.5 -297q-77 0 -182 23z" />
<glyph unicode="#" horiz-adv-x="1402" d="M55 274q7 80 41 177h199l41 243h-217q6 79 41 176h211l39 230q108 24 245 24l-39 -254h299l39 230q108 24 246 24l-39 -254h187q4 -28 4 -61q0 -69 -11 -115h-213l-38 -243h194q5 -27 3 -88t-9 -89h-221l-41 -268q-40 -12 -129 -12q-87 0 -127 12l45 268h-293l-41 -268 q-41 -12 -129 -12q-87 0 -127 12l45 268h-205zM545 451h295l41 243h-297z" />
<glyph unicode="$" horiz-adv-x="1136" d="M119 162q0 102 26 186q165 0 283 -41v-127q64 -30 154 -30q145 0 145 120q0 48 -31.5 82.5t-81.5 55.5t-110 41t-120.5 46.5t-110.5 63t-81.5 100t-31.5 148.5q0 129 78.5 215.5t218.5 114.5v149q104 23 262 23v-166q156 -19 272 -82q4 -32 4 -70q0 -103 -28 -192 q-72 0 -151.5 17t-125.5 44v96q-46 17 -98 17q-63 0 -95 -26t-32 -70q0 -43 31 -74.5t81 -52t110.5 -40.5t120.5 -48t110 -65.5t81 -101.5t31 -149q0 -155 -90.5 -249.5t-243.5 -123.5v-174q-34 -10 -127 -10q-94 0 -135 10v166q-174 19 -307 94q-8 36 -8 103z" />
<glyph unicode="%" horiz-adv-x="1970" d="M43 815q0 152 102.5 244t266.5 92q170 0 269 -87.5t99 -248.5q0 -168 -97.5 -258t-270.5 -90q-181 0 -275 87t-94 261zM293 815q0 -80 31.5 -127t87.5 -47q114 0 114 174q0 72 -29.5 116t-84.5 44q-58 0 -88.5 -42.5t-30.5 -117.5zM489 12l773 1159q53 -2 125 -17 t118 -36l-811 -1210q-46 9 -112 43t-93 61zM1188 307q0 153 102 244.5t266 91.5q170 0 269.5 -87.5t99.5 -248.5q0 -168 -98 -258t-271 -90q-181 0 -274.5 87t-93.5 261zM1438 307q0 -81 31 -127.5t87 -46.5q115 0 115 174q0 72 -30 116t-85 44q-57 0 -87.5 -42.5 t-30.5 -117.5z" />
<glyph unicode="&#x26;" horiz-adv-x="1757" d="M117 369q0 137 88 239.5t219 139.5v18q-88 48 -135 116.5t-47 174.5q0 79 27 145t71.5 109.5t103 73.5t119.5 43.5t123 13.5q58 0 115 -12t112 -38t97.5 -64t68 -95t25.5 -125q0 -122 -78 -215.5t-190 -124.5v-18q171 -117 352 -281q39 85 59 190q-52 9 -92 21 q-25 78 -29 170h560q0 -35 -11.5 -93.5t-23.5 -88.5q-69 -11 -135 -15q-45 -201 -156 -362q59 -59 86 -92q89 -7 147 -25q11 -29 19 -82.5t8 -91.5h-365l-98 123q-198 -164 -483 -164q-104 0 -199 22.5t-177.5 69t-131.5 128.5t-49 190zM408 399q0 -122 81 -180.5t211 -58.5 q192 0 314 116q-204 207 -447 367q-159 -98 -159 -244zM532 1100q0 -74 37 -128t117 -102q131 75 131 220q0 86 -43 128t-98 42q-22 0 -44.5 -7.5t-46 -24.5t-38.5 -50t-15 -78z" />
<glyph unicode="'" horiz-adv-x="507" d="M137 877q15 330 15 589q134 0 262 -32q0 -104 -30.5 -282.5t-64.5 -297.5q-77 0 -182 23z" />
<glyph unicode="(" horiz-adv-x="727" d="M145 596q0 512 203 969q40 20 132.5 33.5t162.5 13.5q-97 -214 -147 -479t-50 -523q0 -525 175 -966q-39 -25 -110 -52.5t-124 -40.5q-125 274 -183.5 544t-58.5 501z" />
<glyph unicode=")" horiz-adv-x="727" d="M121 -365q89 217 135.5 466t46.5 497q0 253 -38.5 507.5t-112.5 453.5q37 27 107 47.5t132 25.5q108 -243 159.5 -516t51.5 -504q0 -237 -59.5 -515.5t-184.5 -551.5q-58 11 -128.5 37t-108.5 53z" />
<glyph unicode="*" horiz-adv-x="995" d="M92 1040l158 52q71 24 117 34v17q-27 2 -117 33l-152 53q5 40 36 108t61 101l141 -105q37 -25 80 -80l16 11q-26 54 -33 108l-18 158q95 18 221 18l-18 -176q-9 -66 -37 -112l18 -13q38 48 84 82l137 105q29 -26 73 -82t67 -97l-191 -79q-60 -25 -114 -31v-17 q39 -2 114 -28l176 -60q-11 -42 -51.5 -107.5t-71.5 -96.5l-143 122q-5 4 -20 17t-25 21.5t-22.5 20.5t-18.5 21l-12 -10q31 -63 37 -113l24 -174q-44 -12 -112 -12q-72 0 -121 12l24 174q8 61 31 107l-14 12q-17 -21 -78 -76l-135 -120q-28 29 -63.5 94t-47.5 108z" />
<glyph unicode="+" d="M59 444q0 46 10.5 112t24.5 110h352v378q106 25 277 25v-403h367q14 -61 14 -156q0 -30 -4 -66h-377v-397q-47 -14 -133 -14q-83 0 -144 14v397h-387z" />
<glyph unicode="," horiz-adv-x="583" d="M90 55q13 51 39.5 108.5t54.5 86.5q47 12 115 12q110 0 217 -35q-25 -150 -103 -346.5t-151 -314.5q-39 10 -84.5 33.5t-66.5 42.5q78 221 102 387z" />
<glyph unicode="-" horiz-adv-x="831" d="M109 446q0 51 10.5 121t25.5 117h539q16 -66 16 -168q0 -30 -4 -70h-587z" />
<glyph unicode="." horiz-adv-x="671" d="M143 174q0 84 54 135t141 51q85 0 136.5 -49t51.5 -137q0 -95 -51.5 -148t-136.5 -53q-95 0 -145 51.5t-50 149.5z" />
<glyph unicode="/" horiz-adv-x="1019" d="M104 -283l703 1848q149 0 256 -35l-721 -1895q-52 9 -128 35t-110 47z" />
<glyph unicode="0" horiz-adv-x="1380" d="M100 571q0 177 75.5 309.5t209 201.5t307.5 69q274 0 431 -150.5t157 -429.5q0 -296 -155.5 -454t-432.5 -158q-288 0 -440 154t-152 458zM416 571q0 -189 73.5 -300t202.5 -111q133 0 203 108t70 303q0 168 -74 275.5t-199 107.5q-133 0 -204.5 -103t-71.5 -280z" />
<glyph unicode="1" horiz-adv-x="1054" d="M123 848q7 137 45 209q88 30 241 58.5t320 35.5v-924q128 -12 232 -47q14 -47 14 -127q0 -25 -4 -53h-809q15 100 53 174q36 15 99 31t106 22v660z" />
<glyph unicode="2" horiz-adv-x="1212" d="M117 197q36 31 105.5 82.5t133.5 97t136.5 104.5t125 111.5t87 112.5t34.5 112q0 64 -40.5 96.5t-114.5 32.5q-92 0 -164 -37v-176q-97 -51 -256 -55q-31 147 -31 264q0 64 8 105q232 104 475 104q98 0 177.5 -15t142 -46.5t97 -86t34.5 -129.5q0 -49 -13.5 -97.5 t-42.5 -94.5t-59.5 -85.5t-78.5 -82.5t-85 -74t-94.5 -70t-90.5 -61t-89 -57v-25q363 12 592 41q4 -46 4 -80q0 -116 -16 -188h-942z" />
<glyph unicode="3" horiz-adv-x="1226" d="M102 -2q0 17 2 29q81 -24 184 -39t177 -15q80 0 145.5 18.5t111.5 65t46 115.5q0 98 -99 145.5t-325 47.5q-27 56 -27 129q0 36 7 67q108 3 198 27.5t152.5 80.5t62.5 136q0 73 -50 108t-122 35q-79 0 -149 -24v-131q-40 -25 -113 -41t-139 -19q-31 108 -31 230 q0 65 4 100q103 41 229.5 64.5t233.5 23.5q90 0 171.5 -19t148 -57t106 -101.5t39.5 -144.5q0 -113 -66.5 -201t-162.5 -126v-19q117 -25 190.5 -97.5t73.5 -190.5q0 -103 -52.5 -187t-140 -137t-197 -82t-227.5 -29q-174 0 -336 50q-19 30 -32 85.5t-13 102.5z" />
<glyph unicode="4" horiz-adv-x="1257" d="M45 289q255 430 633 862l326 -47v-750h172q14 -54 14 -151q0 -30 -4 -66h-182v-334q-52 -14 -144 -14q-99 0 -151 14v334h-623zM367 342q80 12 176 12h166v310q0 98 16 176h-25q-85 -95 -178.5 -229t-154.5 -244v-25z" />
<glyph unicode="5" horiz-adv-x="1148" d="M86 -23q0 23 2 37q68 -17 160.5 -28t154.5 -11q87 0 155 25.5t111.5 82.5t43.5 140q0 191 -238 191q-135 0 -334 -41l58 737h841q0 -143 -32 -258q-249 14 -547 20l-23 -268q72 10 135 10q212 0 338.5 -92t126.5 -282q0 -94 -33 -174t-90.5 -135.5t-135 -94.5t-165 -57.5 t-182.5 -18.5q-159 0 -301 39q-19 31 -32 83t-13 95z" />
<glyph unicode="6" horiz-adv-x="1261" d="M119 571q0 181 55 329t150 244t222 147.5t273 51.5q136 0 260 -59q20 -37 30.5 -108.5t4.5 -116.5q-53 29 -140 49t-151 20q-45 0 -88 -11t-89.5 -38.5t-84 -70.5t-69 -112t-46.5 -157h25q87 107 266 107q190 0 307 -117.5t117 -290.5q0 -214 -146.5 -346.5 t-377.5 -132.5q-249 0 -383.5 161.5t-134.5 450.5zM438 520q0 -172 52.5 -267t154.5 -95q92 0 146.5 72.5t54.5 185.5q0 110 -50 167.5t-143 57.5q-59 0 -116 -22t-99 -60v-39z" />
<glyph unicode="7" horiz-adv-x="1196" d="M66 727l32 383h1010l39 -188q-407 -616 -531 -1112q-74 -15 -163 -15q-92 0 -172 17q89 290 216.5 530.5t315.5 499.5v24h-461q-25 -112 -61 -182q-46 0 -117 13t-108 30z" />
<glyph unicode="8" horiz-adv-x="1288" d="M127 342q0 126 80 214t194 106v18q-219 96 -219 305q0 73 27.5 133.5t74 101.5t109 69t130 41t139.5 13q89 0 170 -18t150 -54.5t110 -101t41 -149.5q0 -122 -65 -196t-159 -99v-18q111 -44 179.5 -126t68.5 -204q0 -102 -42.5 -183.5t-115 -131.5t-164.5 -76.5 t-196 -26.5q-75 0 -143 10t-137.5 37t-119 68.5t-81 110t-31.5 157.5zM436 367q0 -77 32 -127t78.5 -69t106.5 -19q82 0 141.5 46t59.5 144q0 28 -9.5 53.5t-31 48t-42 39.5t-58.5 37t-63 32.5t-72 33.5q-142 -76 -142 -219zM477 1014q0 -35 18 -64.5t56 -56t74.5 -45.5 t95.5 -45q47 35 75.5 85.5t28.5 104.5q0 88 -53 129t-123 41q-30 0 -58 -7t-54.5 -22.5t-43 -46.5t-16.5 -73z" />
<glyph unicode="9" horiz-adv-x="1255" d="M102 692q0 204 140 331.5t360 127.5q268 0 404.5 -164t136.5 -475q0 -172 -52.5 -314.5t-144.5 -238t-216 -147.5t-267 -52q-173 0 -307 62q-24 38 -37 105.5t-8 115.5q72 -28 164 -43.5t171 -15.5q44 0 88 11t90.5 39.5t85 71.5t69.5 112.5t46 156.5h-24 q-91 -109 -258 -109q-208 0 -324.5 120t-116.5 306zM416 707q0 -107 48.5 -171.5t133.5 -64.5q137 0 231 104q-5 193 -58.5 287t-168.5 94q-88 0 -137 -67.5t-49 -181.5z" />
<glyph unicode=":" horiz-adv-x="686" d="M172 172q0 84 54 135t141 51q85 0 136.5 -49t51.5 -137q0 -95 -51.5 -148t-136.5 -53q-95 0 -145 51.5t-50 149.5zM180 858q0 81 52 130.5t135 49.5q81 0 131.5 -48t50.5 -132q0 -90 -50.5 -141t-131.5 -51q-91 0 -139 49t-48 143z" />
<glyph unicode=";" horiz-adv-x="643" d="M90 55q13 51 39.5 108.5t54.5 86.5q47 12 115 12q110 0 217 -35q-25 -150 -103 -346.5t-151 -314.5q-39 10 -84.5 33.5t-66.5 42.5q78 221 102 387zM147 858q0 81 52 130.5t135 49.5q81 0 131.5 -48t50.5 -132q0 -90 -50.5 -141t-131.5 -51q-91 0 -139 49t-48 143z" />
<glyph unicode="&#x3c;" d="M168 475l10 162l631 463q47 -26 108.5 -76.5t92.5 -87.5l-535 -369v-24l506 -357q-15 -39 -65.5 -102.5t-86.5 -87.5z" />
<glyph unicode="=" d="M113 240q0 105 32 219h887q15 -62 15 -154q0 -20 -5 -65h-929zM113 641q0 105 32 219h887q15 -62 15 -153q0 -21 -5 -66h-929z" />
<glyph unicode="&#x3e;" d="M158 926q39 43 100 91t107 68l628 -450l11 -158l-660 -487q-38 23 -90.5 85.5t-67.5 102.5l506 354v25z" />
<glyph unicode="?" horiz-adv-x="1085" d="M117 1409q90 32 224.5 55t236.5 23q196 0 313 -81.5t117 -221.5q0 -60 -22.5 -114.5t-58 -95.5t-79 -79t-87 -70t-79 -61.5t-58 -62t-22.5 -64.5q0 -38 12 -81.5t35 -72.5q-42 -27 -108.5 -49t-122.5 -26q-44 42 -73.5 103.5t-29.5 113.5q0 49 20 95.5t51.5 83t70.5 71.5 t77.5 68.5t70 66t51.5 71t20 78.5q0 53 -39 94t-119 41q-68 0 -133 -26v-181q-41 -24 -109.5 -40t-128.5 -19q-30 170 -30 381zM365 141q0 76 49.5 123t126.5 47t125.5 -45t48.5 -125q0 -86 -48.5 -134t-125.5 -48q-86 0 -131 46.5t-45 135.5z" />
<glyph unicode="@" horiz-adv-x="2187" d="M133 444q0 219 79 411.5t216.5 330.5t333 217.5t420.5 79.5q144 0 276.5 -31t243.5 -93.5t193.5 -149t129 -204t46.5 -253.5q0 -107 -28.5 -208.5t-92.5 -196.5t-156.5 -168.5t-230 -121.5t-303.5 -57q-37 60 -50 129h-18q-93 -129 -242 -129q-135 0 -221 98t-86 287 q0 119 35.5 234.5t103.5 201.5q70 88 176 138.5t236 50.5q101 0 193.5 -31t158.5 -80l-88 -586q0 -60 17 -88q73 17 133.5 56.5t101.5 91t69.5 114t41 126t12.5 126.5q0 107 -38 198.5t-102.5 155.5t-150.5 109t-182 66.5t-197 21.5q-228 0 -408 -110t-278 -298.5 t-98 -418.5q0 -218 88.5 -388t255.5 -266t389 -96q128 0 268.5 34.5t251.5 94.5q26 -22 58.5 -66t44.5 -75q-141 -87 -318 -132.5t-350 -45.5q-208 0 -383 68t-295.5 189t-188 292t-67.5 372zM930 416q0 -104 27 -148.5t79 -44.5q41 0 82.5 24.5t69.5 65.5l72 496 q-30 10 -68 10q-113 0 -186 -108q-76 -115 -76 -295z" />
<glyph unicode="A" horiz-adv-x="1697" d="M59 0q11 84 50 184q42 20 98 31l534 1262h236l512 -1256q56 -10 110 -31q26 -89 33 -190h-635q3 35 18.5 92t31.5 94q65 22 127 33q-41 49 -74 135l-23 58h-528l-25 -68q-31 -92 -61 -133q74 -7 141 -25q13 -33 23 -90t10 -96h-578zM623 602h385l-109 287 q-21 55 -43 143.5t-25 145.5h-24q-7 -101 -80 -293z" />
<glyph unicode="B" horiz-adv-x="1464" d="M90 6q3 40 15.5 97t25.5 87q39 15 137 31v1016q-80 7 -135 20q-8 59 -8 110q0 44 6 81q372 27 559 27q177 0 311.5 -40t216.5 -129t82 -219q0 -107 -56 -192t-150 -117v-18q131 -33 206.5 -118.5t75.5 -211.5q0 -95 -35 -171.5t-93.5 -126.5t-140 -83.5t-169.5 -48 t-186 -14.5q-310 0 -662 20zM584 190q63 -8 143 -8q162 0 244 56.5t82 179.5q0 118 -90.5 177.5t-239.5 59.5h-139v-465zM584 848h133q133 0 199.5 51t66.5 168q0 105 -83 160t-232 55q-44 0 -84 -8v-426z" />
<glyph unicode="C" horiz-adv-x="1437" d="M111 713q0 179 60.5 327.5t165.5 246.5t245.5 152t300.5 54q226 0 420 -96q0 -94 -11 -207.5t-28 -190.5q-59 0 -133.5 17.5t-118.5 42.5v201q-67 30 -148 30q-188 0 -303 -141t-115 -408q0 -268 116 -405t310 -137q84 0 202.5 21t215.5 56q1 -11 1 -23q0 -36 -11 -83 q-15 -63 -39 -102q-213 -109 -440 -109q-205 0 -362.5 96.5t-242.5 267.5t-85 390z" />
<glyph unicode="D" horiz-adv-x="1595" d="M90 4q3 40 15.5 97t25.5 87q39 15 137 31v1000q-70 7 -135 18q-8 63 -8 114q0 44 6 79q113 13 299.5 24.5t292.5 11.5q144 0 265.5 -26.5t221 -82.5t168.5 -139.5t106.5 -201t37.5 -262.5q0 -155 -41 -284.5t-110 -217.5t-162 -149t-195 -89t-211 -28q-417 0 -713 18z M584 195q79 -7 159 -7q213 0 334 129.5t121 403.5t-129.5 409.5t-357.5 135.5q-48 0 -127 -9v-1062z" />
<glyph unicode="E" horiz-adv-x="1400" d="M86 0q3 40 15.5 97t25.5 87q45 17 141 33v1022q-76 7 -135 25q-8 57 -8 107q0 43 6 81h1112v-371q-133 0 -231 31q-17 63 -25 148h-403v-424h317q3 37 19 90q95 30 223 30v-419q-40 -4 -77 -4q-85 0 -148 20q-15 48 -19 94h-315v-450h409q6 84 27 165q41 13 115 22t129 9 v-393h-1178z" />
<glyph unicode="F" horiz-adv-x="1288" d="M86 0q3 40 15.5 97t25.5 87q45 17 141 33v1022q-76 7 -135 25q-8 57 -8 107q0 43 6 81h1069v-389q-53 0 -121.5 10t-113.5 25q-22 80 -29 162h-352v-461h282q3 41 19 98q104 33 223 33v-443q-24 -2 -53 -2.5t-63 2.5q-67 5 -109 19q-15 52 -19 104h-280v-393 q106 -7 204 -29q10 -32 14 -94q1 -23 1 -42q0 -32 -4 -52h-713z" />
<glyph unicode="G" horiz-adv-x="1628" d="M115 690q0 179 58 328.5t163 254t257 162.5t335 58q254 0 469 -127q0 -79 -12 -192.5t-29 -180.5q-56 0 -136.5 18.5t-113.5 37.5v208q-80 41 -191 41q-95 0 -178 -37t-146.5 -108t-100.5 -185t-37 -259q0 -271 119 -405t331 -134q70 0 180 12v350q-150 0 -262 23 q-22 90 -22 184h757q0 -105 -28 -184q-64 -16 -142 -20v-474q-107 -36 -279 -69t-304 -33q-212 0 -368.5 92.5t-238 257t-81.5 381.5z" />
<glyph unicode="H" horiz-adv-x="1763" d="M86 0q3 40 15.5 97t25.5 87q45 17 141 33v1022q-76 7 -135 25q-8 61 -8 111q0 43 6 77h592q5 -25 5 -70v-24q-2 -62 -9 -94q-58 -19 -135 -23v-401h596v399q-69 7 -121 25q-7 37 -8 95v14q0 48 6 79h592q6 -40 6 -80q0 -53 -10 -108q-66 -19 -150 -23v-1024 q84 -7 164 -29q12 -47 12 -127q0 -33 -4 -61h-653q9 112 37 184q41 17 129 33v420h-596v-420q76 -6 149 -29q9 -34 11 -95q1 -18 1 -33q0 -37 -4 -60h-655z" />
<glyph unicode="I" horiz-adv-x="851" d="M86 0q3 40 15.5 97t25.5 87q45 17 141 33v1022q-76 7 -135 25q-8 61 -8 111q0 43 6 77h606q5 -25 5 -70v-24q-2 -62 -9 -94q-66 -19 -149 -23v-1024q84 -7 164 -29q12 -44 12 -127q0 -33 -4 -61h-670z" />
<glyph unicode="J" horiz-adv-x="849" d="M-14 -209q323 186 323 651v797q-97 7 -174 25q-8 57 -8 107q0 43 6 81h645q6 -24 6 -76q0 -70 -10 -112q-66 -19 -149 -23v-745q0 -306 -137 -526.5t-406 -344.5q-28 28 -56.5 78t-39.5 88z" />
<glyph unicode="K" horiz-adv-x="1601" d="M86 0q3 40 15.5 97t25.5 87q45 17 141 33v1022q-76 7 -135 25q-8 61 -8 111q0 43 6 77h590q5 -25 5 -70v-24q-2 -62 -9 -94q-59 -19 -133 -23v-412h143l219 304q53 74 98 108q-48 6 -106 21q-20 73 -20 190h575q-4 -101 -37 -203q-45 -9 -129 -14l-373 -475l457 -551 l131 8q0 -50 -14.5 -115.5t-34.5 -103.5q-139 -34 -295 -41l-516 684h-98v-424q73 -6 147 -29q9 -34 11 -95q1 -18 1 -33q0 -37 -4 -60h-653z" />
<glyph unicode="L" horiz-adv-x="1361" d="M86 0q3 40 15.5 97t25.5 87q45 17 141 33v1022q-76 7 -135 25q-8 61 -8 111q0 43 6 77h666q5 -24 5 -69v-25q-2 -64 -11 -94q-88 -19 -207 -23v-1040h415q7 90 31 200q44 16 117.5 25.5t130.5 9.5v-436h-1192z" />
<glyph unicode="M" horiz-adv-x="2093" d="M102 0q3 39 14 96.5t21 87.5q49 20 119 33v1022q-70 7 -125 25q-7 37 -8 95v14q0 48 6 79h563l283 -756q26 -66 47.5 -174t26.5 -188h24q3 75 26 185.5t48 174.5l289 758h542q5 -25 5 -70q-1 -12 -1 -24q-2 -62 -8 -94q-66 -19 -149 -23v-1032q74 -6 162 -25 q14 -38 14 -125q0 -31 -4 -59h-615q9 112 37 184q57 22 125 33v1004h-24q-29 -216 -88 -381l-306 -863h-219l-317 879q-25 65 -47.5 170.5t-30.5 185.5h-25v-997q69 -7 134 -29q8 -34 10 -94q1 -15 1 -28q0 -40 -5 -64h-525z" />
<glyph unicode="N" horiz-adv-x="1675" d="M102 0q9 112 37 184q50 20 129 33v1022q-76 7 -135 25q-7 37 -8 95v14q0 48 6 79h528l449 -803q75 -138 104 -305h25v895q-88 7 -154 25q-7 37 -8 95v14q0 48 6 79h523q6 -24 6 -76q0 -66 -11 -112q-58 -19 -137 -23v-1257h-317l-502 890q-34 62 -64 146t-40 149h-25 v-952q76 -6 154 -29q10 -34 12 -95q1 -18 0 -33q0 -37 -4 -60h-574z" />
<glyph unicode="O" horiz-adv-x="1611" d="M115 745q0 170 53 311t146 236.5t220 148t275 52.5q316 0 502 -196.5t186 -551.5q0 -370 -185.5 -578t-502.5 -208q-336 0 -515 201t-179 585zM451 745q0 -269 95 -426t263 -157q175 0 264.5 153t89.5 430q0 241 -97.5 394t-256.5 153q-172 0 -265 -145.5t-93 -401.5z " />
<glyph unicode="P" horiz-adv-x="1392" d="M86 0q3 40 15.5 97t25.5 87q45 17 141 33v1016q-67 0 -137 12q-6 35 -7 97v23q0 46 3 79q264 29 610 29q130 0 236.5 -27.5t186 -82t123.5 -142t44 -201.5q0 -118 -49.5 -211t-132.5 -148t-183 -83.5t-210 -28.5q-96 0 -168 14v-346q108 -7 211 -29q10 -33 13 -95 q1 -21 1 -38q0 -34 -4 -55h-719zM584 758q76 -13 174 -13q115 0 183.5 67t68.5 202q0 122 -85.5 192t-226.5 70q-68 0 -114 -6v-512z" />
<glyph unicode="Q" horiz-adv-x="1609" d="M115 745q0 170 53 311t146 236.5t220 148t275 52.5q316 0 502 -196.5t186 -551.5q0 -199 -56.5 -353t-152.5 -238v-19q84 -74 185 -145.5t135 -75.5l184 20q2 -20 2 -51q0 -49 -15.5 -113.5t-33.5 -101.5q-22 -10 -75.5 -22.5t-76.5 -12.5q-80 0 -239 118.5t-287 250.5 q-108 -43 -258 -43q-336 0 -515 201t-179 585zM449 745q0 -269 95.5 -426t264.5 -157q175 0 264.5 153t89.5 430q0 241 -97.5 394t-256.5 153q-174 0 -267 -145.5t-93 -401.5z" />
<glyph unicode="R" horiz-adv-x="1529" d="M86 0q3 40 15.5 97t25.5 87q45 17 141 33v1014q-79 0 -137 14q-6 35 -7 97v23q0 46 3 79q261 29 602 29q131 0 237.5 -25.5t186.5 -77t124 -135.5t44 -195q0 -140 -82 -241t-213 -150q85 -153 179.5 -280t140.5 -156l112 12q0 -49 -12.5 -113.5t-30.5 -99.5 q-43 -13 -131 -27.5t-141 -17.5q-58 41 -186.5 240.5t-217.5 392.5q-87 0 -155 14v-397q78 -7 151 -29q9 -34 11 -95q1 -18 1 -33q0 -37 -4 -60h-657zM584 801q70 -13 170 -13q110 0 180 61t70 181q0 113 -86 179.5t-222 66.5q-66 0 -112 -6v-469z" />
<glyph unicode="S" horiz-adv-x="1282" d="M117 35q0 86 10 205.5t25 199.5q54 0 132 -10.5t124 -26.5v-208q120 -43 221 -43q116 0 182 50t66 142q0 65 -39 113.5t-101 80.5t-136.5 61.5t-149.5 68.5t-137 90t-101 136.5t-39 197.5q0 186 140 293.5t386 107.5q97 0 217 -20t213 -52q0 -76 -12.5 -184.5 t-30.5 -181.5q-52 0 -123 15t-116 36v164q-67 33 -150 33q-100 0 -159.5 -43t-59.5 -109q0 -50 24 -90t64 -68.5t92.5 -54t110 -50t115.5 -51.5t110.5 -64.5t92.5 -83t64 -112t24 -147.5q0 -106 -31 -188t-84 -134.5t-129.5 -86.5t-161 -48t-184.5 -14q-264 0 -469 76z" />
<glyph unicode="T" horiz-adv-x="1443" d="M74 1065v387h1300v-393q-141 0 -239 28q-21 80 -29 173h-225v-1043q103 -7 202 -29q9 -32 13 -94q1 -23 2 -42q0 -32 -4 -52h-748q3 36 18.5 92t30.5 90q74 23 170 35v1043h-227q-8 -89 -27 -166q-86 -29 -237 -29z" />
<glyph unicode="U" horiz-adv-x="1671" d="M115 1452h612q5 -25 5 -70v-24q-2 -62 -9 -94q-63 -19 -139 -23v-678q0 -201 74.5 -299t232.5 -98q167 0 246.5 107.5t79.5 289.5v676q-70 7 -125 25q-7 37 -8 95v14q0 48 6 79h503q6 -24 6 -76q0 -70 -10 -112q-55 -19 -127 -23v-663q0 -141 -35.5 -252t-109 -194.5 t-194.5 -128t-285 -44.5q-292 0 -431 146t-139 442v698q-78 8 -135 23q-18 81 -18 184z" />
<glyph unicode="V" horiz-adv-x="1622" d="M72 1452h647q0 -82 -39 -197q-20 -6 -73.5 -11t-82.5 -5q65 -96 107 -215l147 -432q51 -152 68 -283h24q13 118 70 283l147 426q53 145 105 225q-74 4 -145 21q-12 35 -22.5 93t-10.5 95h565q0 -43 -9 -103t-22 -94q-48 -12 -110 -16l-488 -1264h-260l-475 1266 q-50 6 -109 25q-26 71 -34 186z" />
<glyph unicode="W" horiz-adv-x="2265" d="M57 1452h602q0 -38 -10.5 -97.5t-23.5 -99.5q-18 -6 -64.5 -11t-71.5 -5q54 -83 91 -213l102 -377q22 -79 40 -192.5t19 -196.5h25q2 85 16.5 198.5t34.5 190.5l217 821h287l209 -823q41 -162 45 -371h24q1 86 18.5 193.5t39.5 179.5l112 377q42 135 93 215 q-59 3 -121 21q-10 33 -18.5 92t-8.5 98h504q0 -42 -8.5 -102.5t-20.5 -94.5q-49 -13 -104 -16l-410 -1262h-266l-209 859q-34 134 -41 342h-24q-8 -206 -45 -344l-226 -859h-295l-376 1266q-54 7 -103 25q-26 79 -33 186z" />
<glyph unicode="X" horiz-adv-x="1640" d="M76 0q9 98 45 182q52 18 123 27l387 573l-326 455q-66 11 -119 29q-31 83 -39 186h654q0 -38 -10.5 -97.5t-24.5 -99.5q-46 -12 -115 -16q46 -34 99 -104l161 -230l123 232q25 51 82 108q-53 4 -96 21q-11 35 -20 92t-9 94h525q0 -41 -11 -101t-26 -96q-56 -13 -107 -16 l-334 -514l367 -508q54 -4 133 -24q30 -97 37 -193h-649q10 100 43 188q46 15 100 19q-51 35 -125 141l-170 236l-127 -222q-46 -78 -119 -151q55 -3 119 -21q10 -30 17.5 -91t7.5 -99h-596z" />
<glyph unicode="Y" horiz-adv-x="1476" d="M35 1452h633q0 -88 -33 -197q-40 -11 -121 -16q46 -34 76 -96l108 -211q56 -106 68 -209h25q13 110 67 209l119 217q28 49 78 92q-60 8 -103 25q-10 33 -18 90t-8 96h518q0 -42 -8.5 -102.5t-20.5 -94.5q-48 -13 -106 -16l-422 -690v-332q104 -7 203 -29q10 -33 13 -95 q1 -21 1 -38q0 -34 -4 -55h-748q3 36 18.5 92t30.5 90q74 23 170 35v311l-401 713q-53 7 -102 25q-26 79 -33 186z" />
<glyph unicode="Z" horiz-adv-x="1402" d="M141 0v182l736 1049v24h-410q-9 -102 -33 -190q-118 -27 -250 -27v414h1084v-182l-731 -1043v-24h469q12 118 32 198q39 16 113.5 26.5t134.5 10.5v-438h-1145z" />
<glyph unicode="[" horiz-adv-x="757" d="M170 -434v2040h438q4 -31 1 -90.5t-11 -92.5q-65 -14 -135 -18v-1641q91 -8 166 -28q8 -36 8 -84q0 -46 -8 -86h-459z" />
<glyph unicode="\" horiz-adv-x="972" d="M-45 1489q32 32 100.5 70.5t118.5 50.5l721 -1895q-31 -19 -112 -46.5t-126 -35.5z" />
<glyph unicode="]" horiz-adv-x="757" d="M88 -434q4 89 27 176q57 14 153 22v1643q-66 3 -131 16q-6 32 -6.5 92t6.5 91h424v-2040h-473z" />
<glyph unicode="^" d="M88 776l379 627l195 20l423 -673q-37 -29 -102 -62.5t-113 -46.5l-206 338q-23 37 -49 98t-33 103h-25q-9 -43 -31.5 -101.5t-44.5 -93.5l-225 -375q-45 28 -95 78.5t-73 87.5z" />
<glyph unicode="_" horiz-adv-x="1024" d="M-39 -510q0 44 9.5 106t23.5 103h1036q12 -58 12 -145q0 -28 -4 -64h-1077z" />
<glyph unicode="`" horiz-adv-x="780" d="M106 1503q39 29 129.5 53.5t155.5 24.5l275 -385q-33 -20 -92 -38t-101 -19z" />
<glyph unicode="a" horiz-adv-x="1107" d="M51 270q0 163 118.5 251.5t299.5 88.5q90 0 168 -32v75q0 78 -44.5 115t-135.5 37q-69 0 -171 -27t-161 -59q-8 32 -8 72q0 113 41 190q57 22 165.5 37.5t202.5 15.5q200 0 300 -84t100 -274v-344q0 -98 28 -152q59 0 133 17q3 -21 3 -33q0 -65 -35 -137 q-42 -25 -126 -43.5t-165 -18.5q-33 17 -59.5 57.5t-38.5 90.5h-19q-92 -148 -301 -148q-122 0 -208.5 80t-86.5 225zM348 303q0 -65 36 -99t91 -34q102 0 168 74v192q-60 13 -113 13q-88 0 -135 -39.5t-47 -106.5z" />
<glyph unicode="b" horiz-adv-x="1204" d="M10 1280q2 43 16.5 99.5t32.5 88.5q87 41 232 41q105 0 160 -22v-313q0 -121 -23 -291h31q31 63 100.5 107t167.5 44q78 0 148 -27t131 -84t97 -159t36 -238q0 -253 -154.5 -407t-404.5 -154q-245 0 -426 90v1225h-144zM444 178q51 -14 111 -14q137 0 204.5 89t67.5 245 q0 153 -54 238t-142 85q-55 0 -106 -28.5t-81 -73.5v-541z" />
<glyph unicode="c" horiz-adv-x="1034" d="M66 483q0 240 156.5 395.5t402.5 155.5q177 0 323 -76q6 -30 6 -90q0 -55 -11.5 -119t-27.5 -104q-48 0 -116.5 19t-108.5 41v129q-34 12 -69 12q-108 0 -173 -82.5t-65 -243.5q0 -173 72.5 -258.5t195.5 -85.5q163 0 299 60v-14q0 -36 -12 -84q-15 -57 -39 -93 q-150 -80 -344 -80q-224 0 -356.5 143.5t-132.5 374.5z" />
<glyph unicode="d" horiz-adv-x="1243" d="M66 455q0 261 137.5 420t359.5 159q116 0 191 -53v299h-144q2 43 16.5 99.5t32.5 88.5q87 41 232 41q105 0 160 -22v-1133q0 -98 20 -166h143q3 -15 3 -34q0 -28 -11 -70.5t-24 -67.5q-59 -19 -160 -30t-186 -11q-40 70 -56 162h-18q-94 -172 -309 -172q-56 0 -109 15 t-104 51.5t-89 91t-61.5 140t-23.5 192.5zM377 498q0 -153 55.5 -234.5t147.5 -81.5q56 0 102.5 27.5t77.5 66.5v529q-56 29 -123 29q-130 0 -195 -89.5t-65 -246.5z" />
<glyph unicode="e" horiz-adv-x="1073" d="M66 479q0 245 144.5 400t381.5 155q202 0 297.5 -126t95.5 -357q0 -41 -8 -115h-602q12 -120 84 -184t194 -64q68 0 167 16.5t155 37.5q1 -9 1 -18q0 -36 -12 -83q-15 -60 -40 -98q-62 -34 -154.5 -56t-194.5 -22q-159 0 -275.5 67.5t-175 182.5t-58.5 264zM365 625h331 q2 21 2 41q0 34 -6 66q-10 50 -46 87t-93 37q-77 0 -128.5 -64.5t-59.5 -166.5z" />
<glyph unicode="f" horiz-adv-x="796" d="M43 797q10 117 41 188q50 31 119 47v68q0 215 124 320.5t345 105.5q74 0 167 -14.5t156 -38.5q9 -41 9 -95q0 -108 -33 -221q-51 3 -121.5 18t-106.5 33v123q-39 17 -88 17q-73 0 -114 -58t-41 -164v-127h272q8 -33 12 -94q1 -25 1 -48q0 -32 -3 -60h-282v-594 q120 -12 198 -43q9 -25 13 -77q2 -26 2 -46.5t-2 -36.5h-660q7 89 33 150q42 33 119 57v590h-160z" />
<glyph unicode="g" horiz-adv-x="1181" d="M27 -236q0 86 48 141t115 70v19q-32 16 -59 59.5t-27 91.5q0 68 36.5 118t92.5 75v18q-139 90 -139 293q0 176 126 280.5t321 104.5q148 0 250 -51q85 51 213 51q59 0 118 -16q17 -38 30 -101t13 -110h-209q29 -76 29 -158q0 -182 -118.5 -283.5t-325.5 -101.5 q-71 0 -127 12q-15 -30 -15 -51q0 -44 57.5 -62t192.5 -18q112 0 195.5 -13.5t151.5 -46t103.5 -92.5t35.5 -147q0 -96 -45.5 -169.5t-126.5 -118t-186 -66.5t-232 -22q-233 0 -375.5 76.5t-142.5 217.5zM305 -184q0 -54 41 -92t101.5 -55t132.5 -17q114 0 194 40.5 t80 112.5q0 52 -62 77.5t-210 25.5q-116 0 -222 20q-55 -49 -55 -112zM391 649q0 -101 40 -162t110 -61q72 0 108.5 59.5t36.5 163.5q0 98 -39 159.5t-106 61.5q-150 0 -150 -221z" />
<glyph unicode="h" horiz-adv-x="1345" d="M37 0q7 89 33 150q34 27 118 57v1073h-143q2 43 16.5 99.5t32.5 88.5q87 41 232 41q104 0 159 -22v-309q0 -159 -20 -344h31q80 200 323 200q57 0 101 -7.5t89.5 -31.5t75.5 -64t49 -109t19 -163q0 -244 -16 -460q81 -11 145 -39q10 -45 10 -117q0 -29 -2 -43h-561 q8 98 27 150q25 25 96 57v397q0 203 -158 203q-127 0 -209 -137v-473q87 -13 133 -37q6 -27 10 -77q2 -23 1 -43q0 -22 -2 -40h-590z" />
<glyph unicode="i" horiz-adv-x="702" d="M51 0q7 89 33 150q36 29 119 57v581h-148q2 44 16.5 100.5t32.5 88.5q87 41 234 41q104 0 162 -23v-798q92 -13 145 -37q10 -38 10 -115q0 -31 -2 -45h-602zM174 1391q0 79 51 127.5t131 48.5t129.5 -46.5t49.5 -129.5q0 -89 -49.5 -139t-129.5 -50q-89 0 -135.5 48.5 t-46.5 140.5z" />
<glyph unicode="j" horiz-adv-x="600" d="M-18 -371q91 108 146.5 237t55.5 300v622h-147q2 44 16.5 100.5t32.5 88.5q87 41 233 41q105 0 162 -23v-784q0 -114 -27 -219.5t-77.5 -195t-102.5 -158t-122 -142.5q-43 14 -92.5 54t-77.5 79zM156 1391q0 79 51 127.5t131 48.5t129 -46.5t49 -129.5q0 -89 -49 -139 t-129 -50q-89 0 -135.5 48.5t-46.5 140.5z" />
<glyph unicode="k" horiz-adv-x="1271" d="M37 0q7 89 33 150q34 27 118 57v1073h-143q2 43 16.5 99.5t32.5 88.5q87 41 232 41q104 0 159 -22v-858h103l84 90q47 54 106 80q-60 11 -106 35q-27 76 -27 165h557q0 -41 -11 -93.5t-26 -88.5q-49 -20 -129 -29l-213 -206q78 -126 165.5 -233t135.5 -148l119 18 q2 -8 2 -29q0 -40 -13.5 -100t-31.5 -92q-90 -34 -199 -43q-36 9 -87.5 57.5t-115.5 134t-107 147t-107 157.5h-99v-254q85 -13 131 -37q6 -27 10 -77q2 -23 1 -43q0 -22 -2 -40h-588z" />
<glyph unicode="l" horiz-adv-x="688" d="M37 0q7 89 33 150q37 29 118 57v1073h-143q2 43 16.5 99.5t32.5 88.5q87 41 232 41q104 0 159 -22v-1290q94 -13 146 -37q10 -38 10 -115q0 -31 -2 -45h-602z" />
<glyph unicode="m" horiz-adv-x="1949" d="M51 0q7 89 33 150q33 26 119 57v581h-148q2 44 16.5 100.5t32.5 88.5q80 41 209 41q91 0 142 -23v-161h30q96 200 326 200q120 0 190.5 -44t96.5 -165h18q36 93 118.5 151t205.5 58q56 0 100 -7.5t89 -31.5t74 -64t47.5 -109t18.5 -163q0 -244 -16 -460q81 -11 145 -39 q11 -46 11 -113q0 -31 -2 -47h-557q8 101 26 150q28 28 92 57v397q0 203 -153 203q-101 0 -187 -109v-501q86 -13 132 -37q6 -26 9 -77q1 -22 1 -40q0 -24 -2 -43h-543q9 105 25 150q20 23 90 57v397q0 203 -154 203q-103 0 -186 -109v-501q85 -13 131 -37q6 -26 9 -77 q1 -22 1 -40q0 -24 -2 -43h-588z" />
<glyph unicode="n" horiz-adv-x="1335" d="M51 0q7 89 33 150q33 26 119 57v581h-148q2 44 16.5 100.5t32.5 88.5q80 41 209 41q91 0 142 -23v-161h30q99 200 334 200q57 0 101.5 -7.5t90.5 -31.5t76 -64t49 -109t19 -163q0 -234 -16 -460q81 -11 145 -39q10 -42 10 -113q0 -31 -2 -47h-561q8 98 27 150 q25 25 96 57v397q0 203 -160 203q-109 0 -194 -111v-499q87 -13 133 -37q6 -26 9 -77q1 -22 1 -40q0 -24 -2 -43h-590z" />
<glyph unicode="o" horiz-adv-x="1161" d="M66 516q0 237 145 377.5t371 140.5q235 0 374.5 -136t139.5 -382q0 -261 -139 -406t-375 -145q-249 0 -382.5 140.5t-133.5 410.5zM371 516q0 -164 56.5 -261t154.5 -97q103 0 154.5 94t51.5 264q0 144 -56 236t-150 92q-101 0 -156 -88.5t-55 -239.5z" />
<glyph unicode="p" horiz-adv-x="1218" d="M16 -485q7 88 33 149q33 26 119 57v1067h-148q2 43 16.5 100t33.5 89q80 41 209 41q90 0 141 -23v-161h31q96 200 309 200q58 0 112 -15.5t105.5 -52.5t90 -92t62 -139.5t23.5 -189.5q0 -265 -135.5 -422.5t-362.5 -157.5q-115 0 -190 53v-301q117 -12 194 -43 q9 -25 13 -76q2 -26 2 -47t-2 -36h-656zM459 195q56 -29 123 -29q260 0 260 340q0 313 -187 313q-66 0 -117.5 -32.5t-78.5 -75.5v-516z" />
<glyph unicode="q" horiz-adv-x="1193" d="M66 459q0 269 153.5 422t421.5 153q224 0 410 -112v-1213q91 -8 159 -35q11 -46 11 -112q0 -31 -2 -47h-644q7 82 39 149q50 35 140 57v123q0 134 22 273h-31q-33 -63 -103 -107.5t-165 -44.5q-63 0 -121.5 17t-111.5 55.5t-92.5 94.5t-62.5 140t-23 187zM377 502 q0 -150 54.5 -235t141.5 -85q54 0 105.5 29t81.5 74v536q-65 21 -117 21q-132 0 -199 -91t-67 -249z" />
<glyph unicode="r" horiz-adv-x="901" d="M51 0q7 89 33 150q33 26 119 57v581h-144q0 45 12.5 100.5t32.5 88.5q80 41 209 41q91 0 142 -23v-192h30q19 90 91.5 160.5t173.5 70.5q62 0 104 -20q41 -56 41 -178q0 -56 -12 -97q-29 17 -75 26t-81 9q-68 0 -127.5 -35.5t-99.5 -99.5v-436q123 -12 200 -43 q9 -25 13 -77q2 -26 2 -46.5t-2 -36.5h-662z" />
<glyph unicode="s" horiz-adv-x="954" d="M84 154q0 106 20 174q141 0 236 -33v-113q65 -35 137 -35q119 0 119 95q0 37 -27 64t-70 44t-95 34t-103.5 42.5t-94.5 61t-70 96.5t-27 143q0 139 107.5 223t295.5 84t344 -69q4 -40 4 -72q0 -111 -22 -188q-135 0 -234 45v92q-42 22 -90 22q-108 0 -108 -90 q0 -40 26.5 -69t69 -47.5t93.5 -35.5t102.5 -41t94 -57.5t69 -91.5t26.5 -135q0 -89 -33.5 -155t-94 -103.5t-134 -55.5t-162.5 -18q-224 0 -369 78q-10 52 -10 111z" />
<glyph unicode="t" horiz-adv-x="823" d="M18 797q0 38 11.5 97.5t25.5 90.5q52 30 113 45l37 234q38 21 112.5 35t135.5 14v-314h284q8 -35 12 -95q2 -27 2 -51q0 -30 -3 -56h-295v-453q0 -81 32.5 -114t98.5 -33q90 0 188 26q2 -10 2 -24q0 -35 -14 -85.5t-35 -82.5q-55 -30 -136 -48t-143 -18q-150 0 -222 79.5 t-72 256.5q0 265 20 496h-154z" />
<glyph unicode="u" horiz-adv-x="1275" d="M8 788q2 44 16.5 100.5t32.5 88.5q87 41 234 41q103 0 160 -23v-598q0 -105 35.5 -153.5t125.5 -48.5t172 96v497h-143q2 43 16 98.5t33 90.5q87 41 234 41q102 0 159 -23v-655q0 -85 17 -152h147q2 -10 2 -34q0 -28 -11 -70.5t-24 -67.5q-53 -19 -157.5 -30t-194.5 -11 q-43 76 -59 179h-19q-100 -189 -313 -189q-56 0 -99.5 8.5t-87.5 33t-72.5 66t-46.5 110.5t-18 163q0 213 13 442h-152z" />
<glyph unicode="v" horiz-adv-x="1157" d="M8 999h533q0 -92 -33 -182q-53 -23 -111 -31q48 -61 76 -151l68 -199q41 -120 55 -217h25q10 80 51 215l59 189q33 104 76 165q-53 15 -90 37q-25 68 -25 174h457q0 -41 -11 -98t-24 -92q-43 -17 -82 -21l-313 -792l-297 -27l-320 815q-40 14 -71 45q-19 61 -23 170z" />
<glyph unicode="w" horiz-adv-x="1708" d="M8 999h500q0 -92 -33 -182q-49 -23 -108 -31q41 -70 59 -145l49 -188q35 -132 41 -234h25q9 109 37 232l127 546l327 31l127 -571q29 -141 35 -240h23q8 80 49 238l49 176q25 101 57 160q-60 17 -88 36q-24 65 -24 172h440q0 -40 -11 -95.5t-24 -92.5q-41 -16 -82 -20 l-242 -791l-329 -31l-125 523q-32 138 -35 260h-25q-3 -107 -39 -260l-124 -492l-332 -31l-230 815q-40 14 -71 45q-19 61 -23 170z" />
<glyph unicode="x" horiz-adv-x="1230" d="M10 0q8 98 41 174q62 27 111 37l276 324l-231 256q-61 13 -96 30q-29 73 -33 178h567q0 -94 -22 -184q-30 -19 -72 -27q24 -12 65 -53l97 -106l73 102q18 30 54 62q-34 11 -60 30q-14 72 -14 176h420q-3 -40 -16 -96.5t-27 -91.5q-35 -14 -76 -18l-236 -293l271 -297 q45 -4 82 -21q14 -34 23.5 -87t9.5 -95h-555q8 112 28 182q26 15 62 23q-42 23 -86 78l-101 110l-71 -104q-28 -45 -78 -84q40 -6 84 -25q11 -31 19.5 -86t8.5 -94h-518z" />
<glyph unicode="y" horiz-adv-x="1155" d="M8 999h539q0 -92 -33 -182q-41 -19 -115 -33q52 -69 80 -139l88 -231q38 -101 47 -191h25q9 88 41 191l63 223q22 82 60 151q-57 17 -86 37q-25 68 -25 174h441q0 -41 -11 -98t-24 -92q-38 -17 -80 -21l-119 -317q-151 -403 -244 -580q-71 -137 -194 -248.5t-254 -150.5 q-37 37 -72 102t-41 115q116 31 216 101t153 157l-348 817q-46 14 -82 45q-21 68 -25 170z" />
<glyph unicode="z" horiz-adv-x="1026" d="M66 139l503 656v24h-217q-15 -75 -45 -151q-51 0 -116 11t-99 28v292h821l37 -139l-506 -661v-25q168 0 273 19q14 82 43 145q63 18 155 18q45 0 80 -6l-41 -350h-858z" />
<glyph unicode="{" horiz-adv-x="770" d="M68 520q0 39 9.5 95.5t20.5 86.5q35 4 59 15t38.5 26.5t22 41.5t9.5 52t2 66v361q0 82 20.5 144.5t69 114t137 81t216.5 34.5q0 -42 -11 -100.5t-28 -91.5q-115 -17 -115 -172v-354q0 -233 -139 -297v-19q72 -31 105.5 -99t33.5 -183v-406q0 -91 34 -136t105 -50 q8 -30 4 -98t-16 -95q-97 5 -169 23.5t-119 47.5t-76 72t-40.5 93t-11.5 114v408q0 116 -31 167t-130 58z" />
<glyph unicode="|" horiz-adv-x="712" d="M236 -387v1948q93 22 245 22v-1970q-37 -12 -119 -12q-80 0 -126 12z" />
<glyph unicode="}" horiz-adv-x="770" d="M109 1450q0 35 18.5 94t38.5 92q113 -8 192 -40.5t120.5 -84t59 -109t17.5 -128.5v-365q0 -40 2 -66.5t10.5 -54.5t23.5 -44.5t42 -28.5t65 -15q9 -32 16 -88.5t7 -95.5q-95 -6 -130.5 -50t-35.5 -149v-415q0 -66 -10.5 -117.5t-38.5 -98t-74.5 -77.5t-120 -51 t-172.5 -25q-27 82 -12 193q62 3 99.5 46.5t37.5 114.5v412q0 120 29 191.5t102 111.5v19q-69 40 -100 109t-31 173v352q0 98 -36 142.5t-119 52.5z" />
<glyph unicode="~" d="M98 537q46 79 126.5 127.5t176.5 48.5q54 0 107.5 -16.5t90.5 -37t86.5 -37t94.5 -16.5q49 0 88.5 24t59.5 60q37 -8 85.5 -28.5t76.5 -40.5q-44 -103 -137.5 -171.5t-202.5 -68.5q-62 0 -116.5 16.5t-87.5 36.5t-79.5 36.5t-93.5 16.5q-52 0 -96 -28.5t-70 -69.5 q-30 21 -62.5 66t-46.5 82z" />
<glyph unicode="&#xa1;" horiz-adv-x="798" d="M227 -424l66 965q60 24 153 24q37 0 64 -6l88 -983q-64 -18 -180 -18q-114 0 -191 18zM229 883q0 76 50 123t127 47t125.5 -45t48.5 -125q0 -86 -48.5 -134.5t-125.5 -48.5q-86 0 -131.5 47t-45.5 136z" />
<glyph unicode="&#xa2;" horiz-adv-x="1144" d="M123 547q0 191 113 329t303 179v157q104 23 262 23v-174q120 -20 225 -82q2 -16 2 -55q0 -65 -11 -134t-28 -108q-55 0 -120.5 16t-104.5 43v129q-37 13 -74 13q-114 0 -182 -75.5t-68 -225.5q0 -153 71.5 -236.5t205.5 -83.5q163 0 307 62q3 -41 -12 -100t-39 -95 q-87 -46 -199 -66v-182q-34 -10 -127 -10q-94 0 -135 10v178q-183 32 -286 163t-103 325z" />
<glyph unicode="&#xa3;" horiz-adv-x="1224" d="M80 0q7 92 35 162q44 33 116 59q70 123 70 199q0 43 -2 63h-170q0 69 27 170h114q-18 95 -18 168q0 153 120.5 241.5t338.5 88.5q175 0 356 -70q6 -35 6 -71q0 -123 -35 -226q-118 6 -225 64v96q-46 19 -94 19q-82 0 -128 -38t-46 -102q0 -68 16 -170h365q7 -27 9 -79 t-3 -91h-348q2 -14 2 -39q0 -72 -35.5 -135t-81.5 -96v-18h379q13 69 37 116q114 25 219 19v-330h-1024z" />
<glyph unicode="&#xa4;" horiz-adv-x="1226" d="M106 92l142 164q-82 114 -82 297q0 152 84 266l-141 162q23 32 70 66t91 49l119 -160q100 53 227 53q120 0 222 -45l118 156q44 -13 91.5 -47.5t70.5 -67.5l-135 -156q86 -109 86 -276q0 -182 -94 -303l139 -158q-21 -36 -63.5 -66t-92.5 -40l-120 153q-96 -47 -222 -47 q-131 0 -231 47l-125 -159q-46 13 -88 44.5t-66 67.5zM432 551q0 -114 50.5 -186t133.5 -72q88 0 136.5 70t48.5 188q0 101 -52 169t-133 68q-87 0 -135.5 -65t-48.5 -172z" />
<glyph unicode="&#xa5;" horiz-adv-x="1247" d="M41 1110h580q0 -89 -29 -199q-32 -18 -96 -32q41 -32 63 -78l39 -76q42 -77 55 -135h25q16 70 55 135l49 78q33 52 66 78q-49 17 -72 37q-22 73 -22 192h475q0 -42 -13.5 -104t-29.5 -101q-37 -16 -103 -24l-141 -205h137q6 -24 8 -73t-2 -83h-251l-54 -78v-30h299 q6 -24 8 -73t-2 -83h-305v-53q112 -14 187 -43q9 -29 11.5 -80t-3.5 -80h-686q3 35 15.5 79t25.5 71q45 25 145 55v51h-307q0 71 25 156h282v8l-69 100h-238q0 71 25 156h104l-143 209q-47 12 -88 35q-10 31 -17.5 89t-7.5 101z" />
<glyph unicode="&#xa6;" horiz-adv-x="712" d="M233 -387v807q93 22 250 22v-829q-38 -12 -121 -12q-82 0 -129 12zM233 813v748q93 22 250 22v-770q-38 -12 -121 -12q-82 0 -129 12z" />
<glyph unicode="&#xa7;" horiz-adv-x="1048" d="M61 -139q0 136 25 293q50 0 124.5 -9t123.5 -22v-166q52 -35 131 -35q86 0 132 38.5t46 107.5q0 40 -30 72.5t-77.5 57t-105.5 50.5t-115.5 60.5t-105 78.5t-77.5 113.5t-30 156.5q0 178 123 301q-12 44 -12 93q0 137 101.5 214.5t273.5 77.5q169 0 366 -79 q0 -134 -28 -271q-58 0 -125.5 14t-106.5 35v125q-52 19 -102 19q-62 0 -96.5 -28.5t-34.5 -78.5q0 -34 28 -62t72.5 -50.5t98.5 -46.5t108 -58.5t98.5 -78.5t72.5 -113t28 -156q0 -134 -109 -274q31 -74 31 -152q0 -108 -61 -184t-158 -110t-221 -34q-202 0 -388 101z M330 694q0 -44 23 -79t66.5 -62.5t88.5 -49.5t106 -52.5t103 -59.5q20 52 20 94q0 53 -40.5 96t-93.5 68.5t-130.5 65.5t-124.5 76q-18 -47 -18 -97z" />
<glyph unicode="&#xa8;" horiz-adv-x="1038" d="M82 1333q0 71 46.5 113.5t119.5 42.5t117.5 -41t44.5 -115q0 -81 -44.5 -124.5t-117.5 -43.5q-166 0 -166 168zM629 1333q0 71 46.5 113.5t119.5 42.5t117 -40.5t44 -115.5q0 -81 -44 -124.5t-117 -43.5q-166 0 -166 168z" />
<glyph unicode="&#xa9;" horiz-adv-x="1765" d="M137 694q0 122 37.5 236.5t107 206t162 161t207.5 107t238 37.5q153 0 290.5 -58.5t235.5 -157.5t155.5 -236t57.5 -288q0 -153 -59.5 -290.5t-160.5 -236.5t-241 -157.5t-295 -58.5q-206 0 -374.5 97t-264.5 265.5t-96 372.5zM319 700q0 -118 45 -225t120.5 -184.5 t181 -123.5t221.5 -46q153 0 281.5 77t203 209.5t74.5 288.5q0 155 -74.5 288.5t-204.5 213.5t-284 80t-284 -78t-205 -211t-75 -289zM467 678q0 132 62.5 233t163.5 153t222 52q70 0 148 -16.5t135 -42.5q0 -47 -7 -134t-15 -135q-54 0 -113 13t-96 33v100q-24 8 -56 8 q-66 0 -108.5 -64t-42.5 -184q0 -125 50.5 -180t147.5 -55q110 0 232 39q3 -31 -8 -81.5t-27 -82.5q-135 -66 -281 -66q-182 0 -294.5 114.5t-112.5 295.5z" />
<glyph unicode="&#xaa;" horiz-adv-x="974" d="M162 852q0 110 80 167.5t198 57.5q54 0 107 -12v35q0 37 -29.5 55.5t-77.5 18.5q-46 0 -118.5 -15.5t-116.5 -36.5q-7 34 1 94.5t23 96.5q92 30 246 30q157 0 227 -60t70 -198v-196q0 -39 14 -64q42 0 99 17q0 -32 -8 -76.5t-21 -69.5q-38 -21 -99 -36t-112 -15 q-34 27 -53 86h-19q-23 -37 -73.5 -61.5t-116.5 -24.5q-90 0 -155.5 53.5t-65.5 153.5zM182 391q0 87 27 174h592q7 -30 10 -81t-2 -93h-627zM371 872q0 -40 22.5 -57.5t52.5 -17.5q65 0 101 39v114q-34 6 -62 6q-52 0 -83 -21t-31 -63z" />
<glyph unicode="&#xab;" horiz-adv-x="1411" d="M160 528q78 188 219 414q160 45 309 45q-120 -246 -194 -459q61 -186 174 -407q-47 -22 -122.5 -40.5t-131.5 -19.5q-171 269 -254 467zM705 535q76 185 219 413q157 45 305 45q-124 -256 -195 -458q62 -189 174 -408q-46 -22 -120.5 -40t-129.5 -19q-168 264 -253 467z " />
<glyph unicode="&#xac;" d="M92 453q0 110 35 225h932v-428q-47 -14 -129 -14q-81 0 -142 14v203h-696z" />
<glyph unicode="&#xad;" horiz-adv-x="831" d="M109 446q0 51 10.5 121t25.5 117h539q16 -66 16 -168q0 -30 -4 -70h-587z" />
<glyph unicode="&#xae;" horiz-adv-x="1462" d="M201 1122q0 231 150 379t386 148q235 0 380 -145.5t145 -375.5q0 -231 -151.5 -381.5t-385.5 -150.5t-379 146.5t-145 379.5zM338 1126q0 -174 110.5 -291.5t284.5 -117.5q170 0 278.5 114t108.5 287q0 176 -109 292t-284 116q-170 0 -279.5 -114.5t-109.5 -285.5z M457 881q5 47 22 86q30 15 53 18v281q-23 0 -53 6q-14 59 -2 100q100 10 260 10q106 0 173 -37.5t67 -111.5q0 -100 -90 -146q26 -51 63 -102l66 6q3 -45 -21 -100q-84 -23 -155 -23q-64 105 -109 203h-37v-84q34 -5 54 -18q10 -49 6 -88h-297zM694 1174h54q29 0 47 12.5 t18 36.5q0 47 -78 47h-41v-96z" />
<glyph unicode="&#xaf;" horiz-adv-x="921" d="M102 1219q0 45 10.5 109t24.5 108h670q14 -58 14 -152q0 -29 -4 -65h-715z" />
<glyph unicode="&#xb0;" horiz-adv-x="874" d="M119 1055q0 129 91 208.5t230 79.5q144 0 232 -76.5t88 -211.5q0 -146 -86.5 -226.5t-233.5 -80.5q-155 0 -238 78.5t-83 228.5zM340 1055q0 -60 28 -98.5t72 -38.5q45 0 72 37.5t27 99.5q0 52 -27.5 85.5t-71.5 33.5q-45 0 -72.5 -33t-27.5 -86z" />
<glyph unicode="&#xb1;" d="M127 0q0 104 31 211h852q14 -58 14 -148q0 -31 -4 -63h-893zM131 662q0 101 31 204h293v324q99 22 258 22v-346h307q14 -68 14 -143q0 -25 -4 -61h-317v-336q-58 -15 -123 -15q-80 0 -135 15v336h-324z" />
<glyph unicode="&#xb2;" horiz-adv-x="788" d="M55 1511q159 76 334 76q324 0 324 -225q0 -46 -30 -96.5t-71 -91t-103.5 -85t-107.5 -72t-102 -59.5v-14q176 0 434 17q0 -95 -16 -189h-651v156q34 31 94.5 78t108.5 85.5t96 83.5t75 90t27 87q0 37 -23.5 57.5t-66.5 20.5q-65 0 -111 -17v-90q-35 -13 -93.5 -21 t-100.5 -8q-17 112 -17 217z" />
<glyph unicode="&#xb3;" horiz-adv-x="788" d="M88 940q0 27 2 45q53 -25 129 -41t129 -16q48 0 79.5 18.5t31.5 54.5q0 54 -60.5 74.5t-214.5 20.5q-16 77 17 168q129 0 186 20t57 70q0 65 -86 65q-50 0 -115 -14t-114 -35q-5 36 2 88.5t23 87.5q93 41 223 41q62 0 116 -12.5t98 -37t69.5 -65.5t25.5 -94 q0 -66 -37 -110t-102 -62v-18q69 -13 113.5 -58.5t44.5 -117.5q0 -128 -100 -191t-261 -63q-119 0 -225 28q-31 71 -31 154z" />
<glyph unicode="&#xb4;" horiz-adv-x="753" d="M125 1225l258 360q54 0 145 -28.5t127 -63.5l-393 -379q-34 14 -75 48t-62 63z" />
<glyph unicode="&#xb5;" horiz-adv-x="1286" d="M88 -496q31 916 31 1477q41 15 140 26t153 11q-13 -225 -13 -389q0 -217 54.5 -334t150.5 -117q62 0 112.5 39.5t84.5 101.5q-13 123 -13 236q0 246 19 428q42 16 125.5 25.5t140.5 9.5q-18 -194 -18 -443q0 -160 12.5 -250t32.5 -118.5t53 -28.5q21 0 53 9t51 22 q3 -12 3 -23q0 -42 -13.5 -93t-32.5 -79q-69 -49 -159 -49q-84 0 -136 54t-67 131h-18q-13 -31 -24 -52t-33 -48.5t-48.5 -44t-69 -28.5t-94.5 -12q-87 0 -153.5 45.5t-94.5 132.5h-24q37 -157 68.5 -374t31.5 -336q-87 3 -172 23t-133 48z" />
<glyph unicode="&#xb6;" horiz-adv-x="1458" d="M96 1067q0 430 647 430q371 0 600 -18q5 -40 5 -68q0 -55 -7 -90q-43 -2 -149 -2v-1325q-46 -8 -92 -8q-55 0 -109 8v1345q-100 7 -207 7v-1516q369 -9 574 -29q12 -46 12 -114q0 -29 -2 -41h-962q12 96 34 155q75 21 144 27v862q-50 -4 -97 -4q-71 0 -137 20.5 t-124.5 62.5t-94 119t-35.5 179z" />
<glyph unicode="&#xb7;" horiz-adv-x="688" d="M150 508q0 84 55 136t143 52q85 0 138 -50t53 -138q0 -96 -53 -150.5t-138 -54.5q-97 0 -147.5 52.5t-50.5 152.5z" />
<glyph unicode="&#xb8;" horiz-adv-x="612" d="M113 -373q57 8 96 36t39 69q0 73 -111 96l80 188q74 19 182 19l-26 -144q56 -13 96.5 -55t40.5 -102q0 -94 -84.5 -155.5t-200.5 -72.5q-69 39 -112 121z" />
<glyph unicode="&#xb9;" horiz-adv-x="788" d="M109 1378q0 90 30 160q182 40 385 49v-651q80 -4 140 -16q12 -44 12 -107q0 -25 -2 -41h-545q3 74 33 143q61 16 125 23v457z" />
<glyph unicode="&#xba;" horiz-adv-x="991" d="M143 1008q0 153 101 244t258 91q162 0 258 -88t96 -247q0 -169 -96 -266t-258 -97q-170 0 -264.5 94.5t-94.5 268.5zM180 391q0 87 27 174h600q7 -30 10 -81t-2 -93h-635zM375 1008q0 -92 34.5 -146.5t92.5 -54.5t89.5 54t31.5 147q0 77 -33.5 127.5t-87.5 50.5 q-60 0 -93.5 -48.5t-33.5 -129.5z" />
<glyph unicode="&#xbb;" horiz-adv-x="1411" d="M201 934q47 23 119.5 39t132.5 16q170 -266 252 -461q-79 -181 -254 -467q-58 3 -127.5 23t-120.5 47q125 268 170 397q-76 210 -172 406zM743 940q46 23 117.5 39t130.5 16q171 -268 252 -460q-79 -181 -254 -467q-58 3 -127 22.5t-117 46.5q124 265 170 398 q-75 206 -172 405z" />
<glyph unicode="&#xbc;" horiz-adv-x="1896" d="M94 1206q0 87 31 160q182 40 385 49v-651q79 -4 139 -16q13 -47 13 -107q0 -17 -3 -41h-544q3 77 32 143q61 16 125 23v457zM389 29l1008 1448q134 -3 239 -56l-1046 -1503q-54 10 -112 42.5t-89 68.5zM1081 182v131l338 488h273v-449h100q14 -69 14 -170h-114v-176 q-29 -10 -109 -10q-81 0 -117 10v176h-385zM1303 346q37 6 86 6h77v121q0 54 9 119h-15l-157 -232v-14z" />
<glyph unicode="&#xbd;" horiz-adv-x="1896" d="M39 1206q0 87 31 160q182 40 385 49v-651q79 -4 139 -16q12 -44 12 -107q0 -25 -2 -41h-545q3 74 33 143q61 16 125 23v457zM305 29l1008 1448q134 -3 239 -56l-1046 -1503q-54 10 -112 42.5t-89 68.5zM1159 739q159 76 334 76q324 0 324 -225q0 -46 -30 -96.5t-71 -91 t-103.5 -85t-107.5 -72t-102 -59.5v-14q191 0 434 16q0 -94 -16 -188h-652v156q34 31 94.5 78t109 85.5t96.5 83.5t75 90t27 87q0 37 -23.5 57t-66.5 20q-68 0 -111 -16v-90q-35 -13 -93.5 -21t-100.5 -8q-17 112 -17 217z" />
<glyph unicode="&#xbe;" horiz-adv-x="1896" d="M88 768q0 27 2 45q53 -25 129 -41t129 -16q48 0 79.5 18.5t31.5 54.5q0 54 -60.5 74.5t-214.5 20.5q-16 77 17 168q129 0 186 20t57 70q0 65 -86 65q-50 0 -115 -14t-114 -35q-5 36 2 88.5t23 87.5q93 41 223 41q62 0 116 -12.5t98 -37t69.5 -65.5t25.5 -94 q0 -66 -37 -110t-102 -62v-18q69 -13 113.5 -58.5t44.5 -117.5q0 -128 -100 -191t-261 -63q-119 0 -225 28q-31 71 -31 154zM348 29l1008 1448q134 -3 239 -56l-1046 -1503q-54 10 -112 42.5t-89 68.5zM1047 182v131l337 488h273v-449h100q15 -73 15 -170h-115v-176 q-29 -10 -109 -10t-116 10v176h-385zM1268 346q38 6 86 6h78v121q0 61 8 119h-15l-157 -232v-14z" />
<glyph unicode="&#xbf;" horiz-adv-x="1044" d="M51 -182q0 60 22.5 114.5t58 95.5t79 79t87 70t79 61.5t58 62t22.5 64.5q0 38 -12 81t-35 72q42 27 108.5 49.5t122.5 26.5q43 -42 72.5 -103.5t29.5 -113.5q0 -57 -26.5 -110.5t-66.5 -93t-87 -81.5t-87 -78t-66.5 -81t-26.5 -91q0 -53 39 -94t119 -41q65 0 133 27v180 q41 24 109 40t128 19q31 -175 31 -381q-89 -31 -224 -54t-237 -23q-196 0 -313 81.5t-117 221.5zM344 883q0 76 49.5 123t126.5 47t125.5 -45t48.5 -125q0 -86 -48.5 -134.5t-125.5 -48.5q-86 0 -131 47t-45 136z" />
<glyph unicode="&#xc0;" horiz-adv-x="1697" d="M59 0q11 84 50 184q42 20 98 31l534 1262h236l512 -1256q56 -10 110 -31q26 -89 33 -190h-635q3 35 18.5 92t31.5 94q65 22 127 33q-41 49 -74 135l-23 58h-528l-25 -68q-31 -92 -61 -133q74 -7 141 -25q13 -33 23 -90t10 -96h-578zM365 1765q31 48 102 107.5t123 81.5 l444 -221q-6 -42 -29 -99.5t-47 -87.5zM623 602h385l-109 287q-21 55 -43 143.5t-25 145.5h-24q-7 -101 -80 -293z" />
<glyph unicode="&#xc1;" horiz-adv-x="1697" d="M59 0q11 84 50 184q42 20 98 31l534 1262h236l512 -1256q56 -10 110 -31q26 -89 33 -190h-635q3 35 18.5 92t31.5 94q65 22 127 33q-41 49 -74 135l-23 58h-528l-25 -68q-31 -92 -61 -133q74 -7 141 -25q13 -33 23 -90t10 -96h-578zM623 602h385l-109 287 q-21 55 -43 143.5t-25 145.5h-24q-7 -101 -80 -293zM672 1731l469 233q43 -34 92 -100t72 -121l-596 -205q-15 38 -26 96t-11 97z" />
<glyph unicode="&#xc2;" horiz-adv-x="1697" d="M59 0q11 84 50 184q42 20 98 31l534 1262h236l512 -1256q56 -10 110 -31q26 -89 33 -190h-635q3 35 18.5 92t31.5 94q65 22 127 33q-41 49 -74 135l-23 58h-528l-25 -68q-31 -92 -61 -133q74 -7 141 -25q13 -33 23 -90t10 -96h-578zM403 1720l306 205h272l324 -223 q-13 -40 -50.5 -87.5t-70.5 -68.5l-346 162l-373 -172q-23 33 -40 86.5t-22 97.5zM623 602h385l-109 287q-21 55 -43 143.5t-25 145.5h-24q-7 -101 -80 -293z" />
<glyph unicode="&#xc3;" horiz-adv-x="1697" d="M59 0q11 84 50 184q42 20 98 31l534 1262h236l512 -1256q56 -10 110 -31q26 -89 33 -190h-635q3 35 18.5 92t31.5 94q65 22 127 33q-41 49 -74 135l-23 58h-528l-25 -68q-31 -92 -61 -133q74 -7 141 -25q13 -33 23 -90t10 -96h-578zM365 1667q14 103 94.5 170.5 t216.5 67.5q59 0 111.5 -14.5t85 -32t76.5 -32t89 -14.5q44 0 74 22t41 58q112 0 174 -34q0 -54 -19 -104.5t-56 -93.5t-101.5 -69t-146.5 -26q-54 0 -104.5 15t-84 33t-80 33t-92.5 15q-41 0 -70 -25.5t-38 -56.5q-46 3 -93 28t-77 60zM623 602h385l-109 287 q-21 55 -43 143.5t-25 145.5h-24q-7 -101 -80 -293z" />
<glyph unicode="&#xc4;" horiz-adv-x="1697" d="M59 0q11 84 50 184q42 20 98 31l534 1262h236l512 -1256q56 -10 110 -31q26 -89 33 -190h-635q3 35 18.5 92t31.5 94q65 22 127 33q-41 49 -74 135l-23 58h-528l-25 -68q-31 -92 -61 -133q74 -7 141 -25q13 -33 23 -90t10 -96h-578zM338 1731q0 74 48 116.5t126 42.5 t124 -41t46 -118q0 -82 -46.5 -126t-123.5 -44q-174 0 -174 170zM623 602h385l-109 287q-21 55 -43 143.5t-25 145.5h-24q-7 -101 -80 -293zM1012 1731q0 74 48 116.5t126 42.5t124 -41t46 -118q0 -82 -46.5 -126t-123.5 -44q-174 0 -174 170z" />
<glyph unicode="&#xc5;" horiz-adv-x="1697" d="M59 0q11 84 50 184q42 20 98 31l524 1241q-78 23 -120 80t-42 141q0 115 75 178.5t212 63.5q133 0 210 -60.5t77 -175.5q0 -84 -42 -141t-118 -84l506 -1237q56 -10 110 -31q26 -89 33 -190h-635q3 35 18.5 92t31.5 94q65 22 127 33q-41 49 -74 135l-23 58h-528l-25 -68 q-31 -92 -61 -133q74 -7 141 -25q13 -33 23 -90t10 -96h-578zM623 602h385l-109 287q-21 55 -43 143.5t-25 145.5h-24q-8 -106 -80 -297zM748 1679q0 -44 28 -68t78 -24q47 0 79 23.5t32 68.5t-32 69t-79 24q-49 0 -77.5 -25.5t-28.5 -67.5z" />
<glyph unicode="&#xc6;" horiz-adv-x="2191" d="M29 0q11 87 49 184q42 20 98 31l641 1024q-92 7 -166 25q-7 37 -8 95t6 93h1385v-371q-134 0 -232 31q-16 58 -24 148h-404v-424h318q4 41 18 90q95 30 223 30v-419q-134 -12 -225 16q-14 44 -18 94h-316v-450h410q7 90 26 165q41 13 115 22t129 9v-393h-1177 q3 40 15.5 97t25.5 87q45 17 141 33v266h-441l-83 -139q-49 -79 -103 -133q74 -7 141 -25q13 -33 23 -90t10 -96h-577zM731 670h328v544h-25q-41 -112 -112 -229z" />
<glyph unicode="&#xc7;" horiz-adv-x="1437" d="M111 713q0 179 60.5 327.5t165.5 246.5t245.5 152t300.5 54q226 0 420 -96q0 -94 -11 -207.5t-28 -190.5q-59 0 -133.5 17.5t-118.5 42.5v201q-67 30 -148 30q-188 0 -303 -141t-115 -408q0 -268 116 -405t310 -137q84 0 202.5 21t215.5 56q5 -43 -10 -106t-39 -102 q-150 -77 -313 -99l-15 -82q62 -12 108 -60t46 -122q0 -109 -94 -175t-225 -79q-35 19 -68 56t-53 75q63 10 104 39t41 76q0 84 -125 110l64 158q-273 31 -436.5 236t-163.5 512z" />
<glyph unicode="&#xc8;" horiz-adv-x="1400" d="M86 0q3 40 15.5 97t25.5 87q45 17 141 33v1022q-76 7 -135 25q-14 106 -2 188h1112v-371q-133 0 -231 31q-17 63 -25 148h-403v-424h317q3 37 19 90q95 30 223 30v-419q-134 -12 -225 16q-15 48 -19 94h-315v-450h409q6 84 27 165q41 13 115 22t129 9v-393h-1178z M258 1765q31 48 102 107.5t123 81.5l445 -221q-6 -42 -29 -99.5t-47 -87.5z" />
<glyph unicode="&#xc9;" horiz-adv-x="1400" d="M86 0q3 40 15.5 97t25.5 87q45 17 141 33v1022q-76 7 -135 25q-14 106 -2 188h1112v-371q-133 0 -231 31q-17 63 -25 148h-403v-424h317q3 37 19 90q95 30 223 30v-419q-134 -12 -225 16q-15 48 -19 94h-315v-450h409q6 84 27 165q41 13 115 22t129 9v-393h-1178z M565 1731l469 233q43 -34 92 -100t72 -121l-596 -205q-15 38 -26 96t-11 97z" />
<glyph unicode="&#xca;" horiz-adv-x="1400" d="M86 0q3 40 15.5 97t25.5 87q45 17 141 33v1022q-76 7 -135 25q-14 106 -2 188h1112v-371q-133 0 -231 31q-17 63 -25 148h-403v-424h317q3 37 19 90q95 30 223 30v-419q-134 -12 -225 16q-15 48 -19 94h-315v-450h409q6 84 27 165q41 13 115 22t129 9v-393h-1178z M281 1720l305 205h272l324 -223q-13 -40 -50.5 -87.5t-70.5 -68.5l-346 162l-373 -172q-23 33 -39.5 86t-21.5 98z" />
<glyph unicode="&#xcb;" horiz-adv-x="1400" d="M86 0q3 40 15.5 97t25.5 87q45 17 141 33v1022q-76 7 -135 25q-14 106 -2 188h1112v-371q-133 0 -231 31q-17 63 -25 148h-403v-424h317q3 37 19 90q95 30 223 30v-419q-134 -12 -225 16q-15 48 -19 94h-315v-450h409q6 84 27 165q41 13 115 22t129 9v-393h-1178z M217 1731q0 74 48 116.5t126 42.5q77 0 123.5 -41t46.5 -118q0 -82 -46.5 -126t-123.5 -44q-174 0 -174 170zM891 1731q0 74 48 116.5t126 42.5q77 0 123.5 -41t46.5 -118q0 -82 -46.5 -126t-123.5 -44q-174 0 -174 170z" />
<glyph unicode="&#xcc;" horiz-adv-x="851" d="M-74 1765q31 48 102.5 107.5t123.5 81.5l444 -221q-6 -42 -29 -99.5t-47 -87.5zM86 0q3 40 15.5 97t25.5 87q45 17 141 33v1022q-76 7 -135 25q-15 114 -2 188h606q6 -31 4.5 -93.5t-8.5 -94.5q-66 -19 -149 -23v-1024q84 -7 164 -29q12 -44 12 -127q0 -33 -4 -61h-670z " />
<glyph unicode="&#xcd;" horiz-adv-x="851" d="M86 0q3 40 15.5 97t25.5 87q45 17 141 33v1022q-76 7 -135 25q-15 114 -2 188h606q6 -31 4.5 -93.5t-8.5 -94.5q-66 -19 -149 -23v-1024q84 -7 164 -29q12 -44 12 -127q0 -33 -4 -61h-670zM246 1731l469 233q43 -34 92 -100t72 -121l-596 -205q-15 38 -26 96t-11 97z" />
<glyph unicode="&#xce;" horiz-adv-x="851" d="M-14 1720l305 205h272l324 -223q-13 -40 -50.5 -87.5t-70.5 -68.5l-346 162l-373 -172q-23 33 -39.5 86t-21.5 98zM86 0q3 40 15.5 97t25.5 87q45 17 141 33v1022q-76 7 -135 25q-15 114 -2 188h606q6 -31 4.5 -93.5t-8.5 -94.5q-66 -19 -149 -23v-1024q84 -7 164 -29 q12 -44 12 -127q0 -33 -4 -61h-670z" />
<glyph unicode="&#xcf;" horiz-adv-x="851" d="M-61 1731q0 74 48 116.5t126 42.5q77 0 123.5 -41t46.5 -118q0 -82 -46.5 -126t-123.5 -44q-174 0 -174 170zM86 0q3 40 15.5 97t25.5 87q45 17 141 33v1022q-76 7 -135 25q-15 114 -2 188h606q6 -31 4.5 -93.5t-8.5 -94.5q-66 -19 -149 -23v-1024q84 -7 164 -29 q12 -44 12 -127q0 -33 -4 -61h-670zM555 1731q0 74 48 116.5t126 42.5q77 0 123.5 -41t46.5 -118q0 -82 -46.5 -126t-123.5 -44q-174 0 -174 170z" />
<glyph unicode="&#xd0;" horiz-adv-x="1622" d="M117 4q3 40 15.5 97t25.5 87q20 8 137 33v404h-158q0 40 9.5 96t23.5 94h125v404q-70 7 -135 18q-8 54 -8 115q0 51 6 78q113 13 299.5 24.5t292.5 11.5q181 0 325.5 -42.5t251 -128t164 -223t57.5 -318.5q0 -155 -41 -284.5t-110 -217.5t-162 -149t-195 -89t-211 -28 q-417 0 -712 18zM610 195q79 -7 160 -7q213 0 334 129.5t121 403.5t-130 409.5t-358 135.5q-70 0 -127 -13v-438h299q8 -32 12 -89t-1 -101h-310v-430z" />
<glyph unicode="&#xd1;" horiz-adv-x="1675" d="M102 0q9 112 37 184q50 20 129 33v1022q-76 7 -135 25q-7 37 -8 95t6 93h528l449 -803q75 -138 104 -305h25v895q-88 7 -154 25q-7 37 -8 95t6 93h523q6 -24 6 -76q0 -66 -11 -112q-58 -19 -137 -23v-1257h-317l-502 890q-34 62 -64 146t-40 149h-25v-952q76 -6 154 -29 q9 -34 11.5 -95t-3.5 -93h-574zM389 1667q14 103 94.5 170.5t216.5 67.5q59 0 112 -14.5t85 -32t76.5 -32t89.5 -14.5q44 0 74 22t41 58q112 0 174 -34q0 -54 -19 -104.5t-56.5 -93.5t-102 -69t-146.5 -26q-54 0 -104.5 15t-83.5 33t-79.5 33t-92.5 15q-41 0 -70.5 -26 t-38.5 -56q-46 3 -93 28t-77 60z" />
<glyph unicode="&#xd2;" horiz-adv-x="1611" d="M115 745q0 170 53 311t146 236.5t220 148t275 52.5q316 0 502 -196.5t186 -551.5q0 -370 -185.5 -578t-502.5 -208q-336 0 -515 201t-179 585zM342 1765q31 48 102 107.5t123 81.5l445 -221q-6 -42 -29 -99.5t-47 -87.5zM451 745q0 -269 95 -426t263 -157 q175 0 264.5 153t89.5 430q0 241 -97.5 394t-256.5 153q-172 0 -265 -145.5t-93 -401.5z" />
<glyph unicode="&#xd3;" horiz-adv-x="1611" d="M115 745q0 170 53 311t146 236.5t220 148t275 52.5q316 0 502 -196.5t186 -551.5q0 -370 -185.5 -578t-502.5 -208q-336 0 -515 201t-179 585zM451 745q0 -269 95 -426t263 -157q175 0 264.5 153t89.5 430q0 241 -97.5 394t-256.5 153q-172 0 -265 -145.5t-93 -401.5z M612 1731l469 233q43 -34 92 -100t72 -121l-596 -205q-15 38 -26 96t-11 97z" />
<glyph unicode="&#xd4;" horiz-adv-x="1611" d="M115 745q0 170 53 311t146 236.5t220 148t275 52.5q316 0 502 -196.5t186 -551.5q0 -370 -185.5 -578t-502.5 -208q-336 0 -515 201t-179 585zM369 1720l305 205h272l324 -223q-13 -40 -50.5 -87.5t-70.5 -68.5l-346 162l-373 -172q-23 33 -39.5 86t-21.5 98zM451 745 q0 -269 95 -426t263 -157q175 0 264.5 153t89.5 430q0 241 -97.5 394t-256.5 153q-172 0 -265 -145.5t-93 -401.5z" />
<glyph unicode="&#xd5;" horiz-adv-x="1611" d="M115 745q0 170 53 311t146 236.5t220 148t275 52.5q316 0 502 -196.5t186 -551.5q0 -370 -185.5 -578t-502.5 -208q-336 0 -515 201t-179 585zM324 1667q14 103 94.5 170.5t216.5 67.5q59 0 111.5 -14.5t85 -32t76.5 -32t89 -14.5q44 0 74 22t41 58q112 0 174 -34 q0 -54 -19 -104.5t-56 -93.5t-101.5 -69t-146.5 -26q-54 0 -104.5 15t-84 33t-80 33t-92.5 15q-41 0 -70 -25.5t-38 -56.5q-46 3 -93 28t-77 60zM451 745q0 -269 95 -426t263 -157q175 0 264.5 153t89.5 430q0 241 -97.5 394t-256.5 153q-172 0 -265 -145.5t-93 -401.5z" />
<glyph unicode="&#xd6;" horiz-adv-x="1611" d="M115 745q0 170 53 311t146 236.5t220 148t275 52.5q316 0 502 -196.5t186 -551.5q0 -370 -185.5 -578t-502.5 -208q-336 0 -515 201t-179 585zM276 1731q0 74 48.5 116.5t126.5 42.5q77 0 123.5 -41t46.5 -118q0 -82 -46.5 -126t-123.5 -44q-175 0 -175 170zM451 745 q0 -269 95 -426t263 -157q175 0 264.5 153t89.5 430q0 241 -97.5 394t-256.5 153q-172 0 -265 -145.5t-93 -401.5zM1008 1731q0 74 48 116.5t126 42.5t124 -41t46 -118q0 -82 -46.5 -126t-123.5 -44q-174 0 -174 170z" />
<glyph unicode="&#xd7;" d="M84 872q31 37 90.5 79.5t110.5 64.5l299 -309l290 303q51 -14 113 -56.5t94 -79.5l-340 -327l326 -314q-22 -41 -74 -93t-96 -77l-313 326l-312 -323q-48 27 -99.5 78t-72.5 89l324 314z" />
<glyph unicode="&#xd8;" horiz-adv-x="1660" d="M-6 20l237 269q-92 182 -92 456q0 169 53 310.5t146 237t220.5 148t275.5 52.5q220 0 378 -96l136 151q45 -7 125 -40t116 -58l-200 -223q133 -187 133 -482q0 -370 -185.5 -578t-502.5 -208q-278 0 -447 135l-217 -244q-36 21 -95 78.5t-81 91.5zM465 748 q0 -120 18 -211l576 643q-92 112 -225 112q-179 0 -274 -144.5t-95 -399.5zM559 328q96 -166 275 -166q180 0 271 152t91 429q0 134 -37 256z" />
<glyph unicode="&#xd9;" horiz-adv-x="1671" d="M115 1452h612q6 -31 4.5 -93.5t-8.5 -94.5q-63 -19 -139 -23v-678q0 -201 74.5 -299t232.5 -98q167 0 246.5 107.5t79.5 289.5v676q-70 7 -125 25q-7 37 -8 95t6 93h503q6 -24 6 -76q0 -70 -10 -112q-55 -19 -127 -23v-663q0 -141 -35.5 -252t-109 -194.5t-194.5 -128 t-285 -44.5q-292 0 -431 146t-139 442v698q-78 8 -135 23q-18 81 -18 184zM379 1765q31 48 102 107.5t123 81.5l445 -221q-6 -42 -29 -99.5t-47 -87.5z" />
<glyph unicode="&#xda;" horiz-adv-x="1671" d="M115 1452h612q6 -31 4.5 -93.5t-8.5 -94.5q-63 -19 -139 -23v-678q0 -201 74.5 -299t232.5 -98q167 0 246.5 107.5t79.5 289.5v676q-70 7 -125 25q-7 37 -8 95t6 93h503q6 -24 6 -76q0 -70 -10 -112q-55 -19 -127 -23v-663q0 -141 -35.5 -252t-109 -194.5t-194.5 -128 t-285 -44.5q-292 0 -431 146t-139 442v698q-78 8 -135 23q-18 81 -18 184zM717 1731l469 233q43 -34 92 -100t72 -121l-596 -205q-15 38 -26 96t-11 97z" />
<glyph unicode="&#xdb;" horiz-adv-x="1671" d="M115 1452h612q6 -31 4.5 -93.5t-8.5 -94.5q-63 -19 -139 -23v-678q0 -201 74.5 -299t232.5 -98q167 0 246.5 107.5t79.5 289.5v676q-70 7 -125 25q-7 37 -8 95t6 93h503q6 -24 6 -76q0 -70 -10 -112q-55 -19 -127 -23v-663q0 -141 -35.5 -252t-109 -194.5t-194.5 -128 t-285 -44.5q-292 0 -431 146t-139 442v698q-78 8 -135 23q-18 81 -18 184zM442 1720l306 205h272l323 -223q-13 -40 -50 -87.5t-70 -68.5l-346 162l-373 -172q-23 33 -40 86.5t-22 97.5z" />
<glyph unicode="&#xdc;" horiz-adv-x="1671" d="M115 1452h612q6 -31 4.5 -93.5t-8.5 -94.5q-63 -19 -139 -23v-678q0 -201 74.5 -299t232.5 -98q167 0 246.5 107.5t79.5 289.5v676q-70 7 -125 25q-7 37 -8 95t6 93h503q6 -24 6 -76q0 -70 -10 -112q-55 -19 -127 -23v-663q0 -141 -35.5 -252t-109 -194.5t-194.5 -128 t-285 -44.5q-292 0 -431 146t-139 442v698q-78 8 -135 23q-18 81 -18 184zM377 1731q0 74 48 116.5t126 42.5q77 0 123.5 -41t46.5 -118q0 -82 -46.5 -126t-123.5 -44q-174 0 -174 170zM1051 1731q0 74 48 116.5t126 42.5q77 0 123.5 -41t46.5 -118q0 -82 -46.5 -126 t-123.5 -44q-174 0 -174 170z" />
<glyph unicode="&#xdd;" horiz-adv-x="1476" d="M35 1452h633q0 -88 -33 -197q-40 -11 -121 -16q46 -34 76 -96l108 -211q56 -106 68 -209h25q13 110 67 209l119 217q28 49 78 92q-60 8 -103 25q-10 33 -18 90t-8 96h518q0 -42 -8.5 -102.5t-20.5 -94.5q-48 -13 -106 -16l-422 -690v-332q104 -7 203 -29q10 -33 13 -95 t-3 -93h-748q3 36 18.5 92t30.5 90q74 23 170 35v311l-401 713q-53 7 -102 25q-26 79 -33 186zM612 1731l469 233q43 -34 92 -100t72 -121l-596 -205q-15 38 -26 96t-11 97z" />
<glyph unicode="&#xde;" horiz-adv-x="1404" d="M86 0q3 40 15.5 97t25.5 87q45 17 141 33v1022q-76 7 -135 25q-7 37 -8 95t6 93h606q6 -31 4.5 -93.5t-8.5 -94.5q-66 -19 -149 -23v-90q53 4 157 4q178 0 310 -42.5t210 -134.5t78 -224q0 -88 -32.5 -161t-88 -122.5t-130 -83.5t-156.5 -49.5t-170 -15.5q-110 0 -178 16 v-121q84 -7 164 -29q9 -34 11.5 -95t-3.5 -93h-670zM584 532q77 -14 186 -14q115 0 183.5 54.5t68.5 166.5q0 100 -85.5 159.5t-223.5 59.5q-6 0 -129 -6v-420z" />
<glyph unicode="&#xdf;" horiz-adv-x="1486" d="M51 0q7 89 33 150q33 26 119 57v575q-76 7 -133 33q-7 36 -9.5 93.5t2.5 90.5h142q22 264 176.5 399.5t425.5 135.5q80 0 156 -15.5t144.5 -47.5t110.5 -89.5t42 -132.5q0 -74 -29 -124.5t-80 -94.5q-29 -24 -43.5 -37.5t-33 -35.5t-26.5 -45.5t-8 -51.5q0 -31 10.5 -56 t35.5 -45.5t45 -33t60.5 -34.5t61.5 -34q35 -22 61 -41t55 -48.5t47 -61t30 -75.5t12 -95q0 -91 -37 -163t-100 -116.5t-143 -68t-170 -23.5q-192 0 -363 82q-6 40 -6 86q0 114 27 201q55 0 122.5 -10t108.5 -25v-119q58 -28 123 -28q67 0 101 33.5t34 95.5q0 37 -13.5 67.5 t-43 56.5t-55 42.5t-70.5 41.5q-35 20 -51.5 29.5t-49 31t-49 37.5t-39.5 42.5t-34.5 52.5t-20 61.5t-8.5 75.5q0 44 13.5 83.5t41.5 74.5t48 54t55 50q40 35 61 65t21 68q0 64 -50.5 96.5t-115.5 32.5q-165 0 -233 -110t-68 -330v-903h-443z" />
<glyph unicode="&#xe0;" horiz-adv-x="1107" d="M51 270q0 163 118.5 251.5t299.5 88.5q90 0 168 -32v75q0 78 -44.5 115t-135.5 37q-69 0 -171 -27t-161 -59q-8 32 -8 72q0 113 41 190q57 22 165.5 37.5t202.5 15.5q200 0 300 -84t100 -274v-344q0 -98 28 -152q59 0 133 17q3 -21 3 -33q0 -65 -35 -137 q-42 -25 -126 -43.5t-165 -18.5q-33 17 -59.5 57.5t-38.5 90.5h-19q-92 -148 -301 -148q-122 0 -208.5 80t-86.5 225zM174 1503q39 29 129.5 53.5t155.5 24.5l274 -385q-33 -20 -91.5 -38t-100.5 -19zM348 303q0 -65 36 -99t91 -34q102 0 168 74v192q-60 13 -113 13 q-88 0 -135 -39.5t-47 -106.5z" />
<glyph unicode="&#xe1;" horiz-adv-x="1107" d="M51 270q0 163 118.5 251.5t299.5 88.5q90 0 168 -32v75q0 78 -44.5 115t-135.5 37q-69 0 -171 -27t-161 -59q-8 32 -8 72q0 113 41 190q57 22 165.5 37.5t202.5 15.5q200 0 300 -84t100 -274v-344q0 -98 28 -152q59 0 133 17q3 -21 3 -33q0 -65 -35 -137 q-42 -25 -126 -43.5t-165 -18.5q-33 17 -59.5 57.5t-38.5 90.5h-19q-92 -148 -301 -148q-122 0 -208.5 80t-86.5 225zM311 1225l258 360q54 0 145.5 -29t127.5 -63l-393 -379q-34 15 -75.5 48.5t-62.5 62.5zM348 303q0 -65 36 -99t91 -34q102 0 168 74v192q-60 13 -113 13 q-88 0 -135 -39.5t-47 -106.5z" />
<glyph unicode="&#xe2;" horiz-adv-x="1107" d="M51 270q0 163 118.5 251.5t299.5 88.5q90 0 168 -32v75q0 78 -44.5 115t-135.5 37q-69 0 -171 -27t-161 -59q-8 32 -8 72q0 113 41 190q57 22 165.5 37.5t202.5 15.5q200 0 300 -84t100 -274v-344q0 -98 28 -152q59 0 133 17q3 -21 3 -33q0 -65 -35 -137 q-42 -25 -126 -43.5t-165 -18.5q-33 17 -59.5 57.5t-38.5 90.5h-19q-92 -148 -301 -148q-122 0 -208.5 80t-86.5 225zM137 1284l264 266l213 11l281 -304q-20 -34 -64 -71t-81 -49l-250 211l-264 -218q-31 26 -59 70t-40 84zM348 303q0 -65 36 -99t91 -34q102 0 168 74v192 q-60 13 -113 13q-88 0 -135 -39.5t-47 -106.5z" />
<glyph unicode="&#xe3;" horiz-adv-x="1107" d="M51 270q0 163 118.5 251.5t299.5 88.5q90 0 168 -32v75q0 78 -44.5 115t-135.5 37q-69 0 -171 -27t-161 -59q-8 32 -8 72q0 113 41 190q57 22 165.5 37.5t202.5 15.5q200 0 300 -84t100 -274v-344q0 -98 28 -152q59 0 133 17q3 -21 3 -33q0 -65 -35 -137 q-42 -25 -126 -43.5t-165 -18.5q-33 17 -59.5 57.5t-38.5 90.5h-19q-92 -148 -301 -148q-122 0 -208.5 80t-86.5 225zM90 1270q13 98 80.5 161.5t187.5 63.5q51 0 96.5 -13.5t73.5 -30.5t65.5 -30.5t74.5 -13.5q70 0 96 76q100 0 164 -35q0 -51 -16.5 -99t-49 -88.5t-88 -65 t-125.5 -24.5q-47 0 -90.5 14.5t-72 32t-68.5 32t-80 14.5q-67 0 -86 -74q-43 0 -88 23t-74 57zM348 303q0 -65 36 -99t91 -34q102 0 168 74v192q-60 13 -113 13q-88 0 -135 -39.5t-47 -106.5z" />
<glyph unicode="&#xe4;" horiz-adv-x="1107" d="M51 270q0 163 118.5 251.5t299.5 88.5q90 0 168 -32v75q0 78 -44.5 115t-135.5 37q-69 0 -171 -27t-161 -59q-8 32 -8 72q0 113 41 190q57 22 165.5 37.5t202.5 15.5q200 0 300 -84t100 -274v-344q0 -98 28 -152q59 0 133 17q3 -21 3 -33q0 -65 -35 -137 q-42 -25 -126 -43.5t-165 -18.5q-33 17 -59.5 57.5t-38.5 90.5h-19q-92 -148 -301 -148q-122 0 -208.5 80t-86.5 225zM74 1333q0 71 46.5 113.5t119.5 42.5t117 -40.5t44 -115.5q0 -81 -44 -124.5t-117 -43.5q-166 0 -166 168zM348 303q0 -65 36 -99t91 -34q102 0 168 74 v192q-60 13 -113 13q-88 0 -135 -39.5t-47 -106.5zM621 1333q0 71 46 113.5t119 42.5t117.5 -41t44.5 -115q0 -81 -44.5 -124.5t-117.5 -43.5q-165 0 -165 168z" />
<glyph unicode="&#xe5;" horiz-adv-x="1107" d="M51 270q0 163 118.5 251.5t299.5 88.5q90 0 168 -32v75q0 78 -44.5 115t-135.5 37q-69 0 -171 -27t-161 -59q-8 32 -8 72q0 113 41 190q57 22 165.5 37.5t202.5 15.5q200 0 300 -84t100 -274v-344q0 -98 28 -152q59 0 133 17q3 -21 3 -33q0 -65 -35 -137 q-42 -25 -126 -43.5t-165 -18.5q-33 17 -59.5 57.5t-38.5 90.5h-19q-92 -148 -301 -148q-122 0 -208.5 80t-86.5 225zM250 1391q0 103 72.5 165t193.5 62q116 0 185 -59.5t69 -167.5q0 -121 -68 -183.5t-186 -62.5q-133 0 -199.5 60t-66.5 186zM348 303q0 -65 36 -99t91 -34 q102 0 168 74v192q-60 13 -113 13q-88 0 -135 -39.5t-47 -106.5zM412 1389q0 -61 25.5 -87t80.5 -26q43 0 67.5 28t24.5 85q0 100 -92 100q-50 0 -78 -25.5t-28 -74.5z" />
<glyph unicode="&#xe6;" horiz-adv-x="1601" d="M51 270q0 109 57.5 187.5t150.5 115.5t210 37q90 0 168 -32v75q0 78 -44.5 115t-135.5 37q-69 0 -171 -27t-161 -59q-8 32 -8 72q0 113 41 190q55 22 164 37.5t202 15.5q127 0 196 -36t101 -101h19q84 137 286 137q387 0 387 -479q0 -59 -6 -121h-589q24 -241 268 -241 q69 0 167 16.5t154 36.5q5 -41 -10.5 -103t-40.5 -100q-148 -78 -348 -78q-131 0 -229 48.5t-140 131.5h-18q-40 -79 -130 -129.5t-224 -50.5q-130 0 -223 79.5t-93 225.5zM348 299q0 -64 36 -96.5t91 -32.5q57 0 107.5 26t85.5 64q-35 84 -41 178q-53 11 -105 11 q-83 0 -128.5 -40.5t-45.5 -109.5zM907 623h316q10 91 -23 160t-115 69q-75 0 -122.5 -63t-55.5 -166z" />
<glyph unicode="&#xe7;" horiz-adv-x="1034" d="M66 483q0 240 156.5 395.5t402.5 155.5q177 0 323 -76q6 -30 6 -90q0 -55 -11.5 -119t-27.5 -104q-48 0 -116.5 19t-108.5 41v129q-34 12 -69 12q-108 0 -173 -82.5t-65 -243.5q0 -173 72.5 -258.5t195.5 -85.5q163 0 299 60q3 -41 -12 -98t-39 -93q-101 -55 -244 -74 l-14 -80q56 -13 96.5 -55t40.5 -102q0 -94 -84 -155.5t-200 -72.5q-70 40 -113 121q57 8 96 36t39 69q0 74 -110 96l59 143q-186 27 -292.5 166.5t-106.5 345.5z" />
<glyph unicode="&#xe8;" horiz-adv-x="1073" d="M66 479q0 245 144.5 400t381.5 155q202 0 297.5 -126t95.5 -357q0 -41 -8 -115h-602q12 -120 84 -184t194 -64q68 0 167 16.5t155 37.5q4 -41 -11 -101t-40 -98q-62 -34 -154.5 -56t-194.5 -22q-159 0 -275.5 67.5t-175 182.5t-58.5 264zM256 1503q39 29 129.5 53.5 t155.5 24.5l274 -385q-33 -20 -91.5 -38t-100.5 -19zM365 625h331q6 57 -4.5 107.5t-46 87t-92.5 36.5q-77 0 -128.5 -64.5t-59.5 -166.5z" />
<glyph unicode="&#xe9;" horiz-adv-x="1073" d="M66 479q0 245 144.5 400t381.5 155q202 0 297.5 -126t95.5 -357q0 -41 -8 -115h-602q12 -120 84 -184t194 -64q68 0 167 16.5t155 37.5q4 -41 -11 -101t-40 -98q-62 -34 -154.5 -56t-194.5 -22q-159 0 -275.5 67.5t-175 182.5t-58.5 264zM365 625h331q6 57 -4.5 107.5 t-46 87t-92.5 36.5q-77 0 -128.5 -64.5t-59.5 -166.5zM367 1225l258 360q54 0 145 -28.5t127 -63.5l-393 -379q-34 14 -75 48t-62 63z" />
<glyph unicode="&#xea;" horiz-adv-x="1073" d="M66 479q0 245 144.5 400t381.5 155q202 0 297.5 -126t95.5 -357q0 -41 -8 -115h-602q12 -120 84 -184t194 -64q68 0 167 16.5t155 37.5q4 -41 -11 -101t-40 -98q-62 -34 -154.5 -56t-194.5 -22q-159 0 -275.5 67.5t-175 182.5t-58.5 264zM188 1284l265 266l213 11 l280 -304q-20 -34 -64 -71t-81 -49l-250 211l-264 -218q-31 26 -59 70t-40 84zM365 625h331q6 57 -4.5 107.5t-46 87t-92.5 36.5q-77 0 -128.5 -64.5t-59.5 -166.5z" />
<glyph unicode="&#xeb;" horiz-adv-x="1073" d="M66 479q0 245 144.5 400t381.5 155q202 0 297.5 -126t95.5 -357q0 -41 -8 -115h-602q12 -120 84 -184t194 -64q68 0 167 16.5t155 37.5q4 -41 -11 -101t-40 -98q-62 -34 -154.5 -56t-194.5 -22q-159 0 -275.5 67.5t-175 182.5t-58.5 264zM129 1333q0 71 46.5 113.5 t119.5 42.5t117.5 -41t44.5 -115q0 -81 -44.5 -124.5t-117.5 -43.5q-166 0 -166 168zM365 625h331q6 57 -4.5 107.5t-46 87t-92.5 36.5q-77 0 -128.5 -64.5t-59.5 -166.5zM676 1333q0 71 46.5 113.5t119.5 42.5t117.5 -41t44.5 -115q0 -81 -44.5 -124.5t-117.5 -43.5 q-166 0 -166 168z" />
<glyph unicode="&#xec;" horiz-adv-x="702" d="M4 1503q39 29 129.5 53.5t155.5 24.5l274 -385q-33 -20 -91.5 -38t-100.5 -19zM51 0q7 89 33 150q36 29 119 57v581h-144q0 45 12.5 100.5t32.5 88.5q87 41 234 41q104 0 162 -23v-798q92 -13 145 -37q10 -38 10 -115q0 -31 -2 -45h-602z" />
<glyph unicode="&#xed;" horiz-adv-x="702" d="M51 0q7 89 33 150q36 29 119 57v581h-144q0 45 12.5 100.5t32.5 88.5q87 41 234 41q104 0 162 -23v-798q92 -13 145 -37q10 -38 10 -115q0 -31 -2 -45h-602zM152 1225l258 360q54 0 145 -28.5t127 -63.5l-393 -379q-34 14 -75 48t-62 63z" />
<glyph unicode="&#xee;" horiz-adv-x="702" d="M-37 1284l264 266l213 11l281 -304q-19 -33 -64 -70.5t-82 -49.5l-249 211l-265 -218q-30 26 -58 70t-40 84zM51 0q7 89 33 150q36 29 119 57v581h-144q0 45 12.5 100.5t32.5 88.5q87 41 234 41q104 0 162 -23v-798q92 -13 145 -37q10 -38 10 -115q0 -31 -2 -45h-602z " />
<glyph unicode="&#xef;" horiz-adv-x="702" d="M-63 1333q0 71 46 113.5t119 42.5t117.5 -41t44.5 -115q0 -81 -44.5 -124.5t-117.5 -43.5q-165 0 -165 168zM51 0q7 89 33 150q36 29 119 57v581h-144q0 45 12.5 100.5t32.5 88.5q87 41 234 41q104 0 162 -23v-798q92 -13 145 -37q10 -38 10 -115q0 -31 -2 -45h-602z M442 1333q0 71 46.5 113.5t119.5 42.5t117.5 -41t44.5 -115q0 -81 -44.5 -124.5t-117.5 -43.5q-166 0 -166 168z" />
<glyph unicode="&#xf0;" horiz-adv-x="1200" d="M90 446q0 149 51.5 268.5t155 191t242.5 71.5q137 0 229 -86h31q-57 165 -197 278l-289 -159q-33 95 -37 188l138 78q-61 25 -183 55q9 47 42 99.5t71 85.5q203 -49 340 -115l221 117q23 -22 56.5 -70t44.5 -80l-152 -82q268 -226 268 -657q0 -313 -147 -488.5 t-426 -175.5q-217 0 -338 124t-121 357zM391 467q0 -142 54 -221.5t143 -79.5q237 0 237 426q0 58 -6 108q-95 82 -213 82q-103 0 -159 -87.5t-56 -227.5z" />
<glyph unicode="&#xf1;" horiz-adv-x="1335" d="M51 0q7 89 33 150q33 26 119 57v581h-148q2 44 16.5 100.5t32.5 88.5q80 41 209 41q91 0 142 -23v-161h30q99 200 334 200q57 0 101.5 -7.5t90.5 -31.5t76 -64t49 -109t19 -163q0 -234 -16 -460q81 -11 145 -39q10 -42 10 -113q0 -31 -2 -47h-561q8 98 27 150 q25 25 96 57v397q0 203 -160 203q-109 0 -194 -111v-499q87 -13 133 -37q6 -26 9 -77t-1 -83h-590zM254 1270q13 98 80.5 161.5t187.5 63.5q64 0 117.5 -22t99.5 -44t92 -22q71 0 97 76q100 0 164 -35q0 -51 -16.5 -99t-49 -88.5t-88 -65t-125.5 -24.5q-47 0 -90.5 14.5 t-72 32t-68.5 32t-80 14.5q-67 0 -86 -74q-43 0 -88 23t-74 57z" />
<glyph unicode="&#xf2;" horiz-adv-x="1161" d="M66 516q0 237 145 377.5t371 140.5q235 0 374.5 -136t139.5 -382q0 -261 -139 -406t-375 -145q-249 0 -382.5 140.5t-133.5 410.5zM268 1503q39 29 129.5 53.5t155.5 24.5l274 -385q-33 -20 -91.5 -38t-100.5 -19zM371 516q0 -164 56.5 -261t154.5 -97q103 0 154.5 94 t51.5 264q0 144 -56 236t-150 92q-101 0 -156 -88.5t-55 -239.5z" />
<glyph unicode="&#xf3;" horiz-adv-x="1161" d="M66 516q0 237 145 377.5t371 140.5q235 0 374.5 -136t139.5 -382q0 -261 -139 -406t-375 -145q-249 0 -382.5 140.5t-133.5 410.5zM371 516q0 -164 56.5 -261t154.5 -97q103 0 154.5 94t51.5 264q0 144 -56 236t-150 92q-101 0 -156 -88.5t-55 -239.5zM393 1225l258 360 q54 0 145.5 -29t127.5 -63l-394 -379q-34 14 -75 48t-62 63z" />
<glyph unicode="&#xf4;" horiz-adv-x="1161" d="M66 516q0 237 145 377.5t371 140.5q235 0 374.5 -136t139.5 -382q0 -261 -139 -406t-375 -145q-249 0 -382.5 140.5t-133.5 410.5zM213 1284l264 266l213 11l281 -304q-19 -33 -64 -70.5t-82 -49.5l-250 211l-264 -218q-30 26 -58 70t-40 84zM371 516q0 -164 56.5 -261 t154.5 -97q103 0 154.5 94t51.5 264q0 144 -56 236t-150 92q-101 0 -156 -88.5t-55 -239.5z" />
<glyph unicode="&#xf5;" horiz-adv-x="1161" d="M66 516q0 237 145 377.5t371 140.5q235 0 374.5 -136t139.5 -382q0 -261 -139 -406t-375 -145q-249 0 -382.5 140.5t-133.5 410.5zM164 1270q13 98 80.5 161.5t187.5 63.5q64 0 117.5 -22t99.5 -44t92 -22q71 0 97 76q99 0 163 -35q0 -51 -16.5 -99t-49 -88.5t-87.5 -65 t-125 -24.5q-47 0 -90.5 14.5t-72 32t-68.5 32t-80 14.5q-67 0 -86 -74q-43 0 -88 23t-74 57zM371 516q0 -164 56.5 -261t154.5 -97q103 0 154.5 94t51.5 264q0 144 -56 236t-150 92q-101 0 -156 -88.5t-55 -239.5z" />
<glyph unicode="&#xf6;" horiz-adv-x="1161" d="M66 516q0 237 145 377.5t371 140.5q235 0 374.5 -136t139.5 -382q0 -261 -139 -406t-375 -145q-249 0 -382.5 140.5t-133.5 410.5zM150 1333q0 71 46 113.5t119 42.5t117.5 -41t44.5 -115q0 -81 -44.5 -124.5t-117.5 -43.5q-165 0 -165 168zM371 516q0 -164 56.5 -261 t154.5 -97q103 0 154.5 94t51.5 264q0 144 -56 236t-150 92q-101 0 -156 -88.5t-55 -239.5zM721 1333q0 71 46.5 113.5t119.5 42.5t117.5 -41t44.5 -115q0 -81 -44.5 -124.5t-117.5 -43.5q-166 0 -166 168z" />
<glyph unicode="&#xf7;" d="M82 444q0 102 33 224h952q14 -61 14 -156q0 -36 -4 -68h-995zM438 164q0 62 41.5 99.5t106.5 37.5t104 -35.5t39 -101.5q0 -72 -39 -111t-104 -39q-148 0 -148 150zM438 948q0 62 41.5 99.5t106.5 37.5t104 -35.5t39 -101.5q0 -72 -39 -110.5t-104 -38.5q-148 0 -148 149 z" />
<glyph unicode="&#xf8;" horiz-adv-x="1206" d="M90 -14l115 147q-111 139 -111 383q0 237 145 377.5t371 140.5q143 0 252 -53l119 152q37 -15 86 -50t72 -63l-123 -156q108 -133 108 -348q0 -261 -139 -406t-375 -145q-148 0 -262 51l-147 -190q-25 21 -60 72t-51 88zM389 516q0 -83 17 -147l325 424q-54 51 -121 51 q-104 0 -162.5 -89t-58.5 -239zM481 213q52 -55 129 -55q107 0 162 94.5t55 263.5q0 67 -14 119z" />
<glyph unicode="&#xf9;" horiz-adv-x="1275" d="M8 788q2 44 16.5 100.5t32.5 88.5q87 41 234 41q103 0 160 -23v-598q0 -105 35.5 -153.5t125.5 -48.5t172 96v497h-143q2 43 16 98.5t33 90.5q87 41 234 41q102 0 159 -23v-655q0 -85 17 -152h147q2 -10 2 -34q0 -28 -11 -70.5t-24 -67.5q-53 -19 -157.5 -30t-194.5 -11 q-43 76 -59 179h-19q-100 -189 -313 -189q-56 0 -99.5 8.5t-87.5 33t-72.5 66t-46.5 110.5t-18 163q0 213 13 442h-152zM285 1503q39 29 129 53.5t155 24.5l275 -385q-33 -20 -92 -38t-101 -19z" />
<glyph unicode="&#xfa;" horiz-adv-x="1275" d="M8 788q2 44 16.5 100.5t32.5 88.5q87 41 234 41q103 0 160 -23v-598q0 -105 35.5 -153.5t125.5 -48.5t172 96v497h-143q2 43 16 98.5t33 90.5q87 41 234 41q102 0 159 -23v-655q0 -85 17 -152h147q2 -10 2 -34q0 -28 -11 -70.5t-24 -67.5q-53 -19 -157.5 -30t-194.5 -11 q-43 76 -59 179h-19q-100 -189 -313 -189q-56 0 -99.5 8.5t-87.5 33t-72.5 66t-46.5 110.5t-18 163q0 213 13 442h-152zM399 1225l258 360q54 0 145.5 -29t127.5 -63l-393 -379q-34 15 -75.5 48.5t-62.5 62.5z" />
<glyph unicode="&#xfb;" horiz-adv-x="1275" d="M8 788q2 44 16.5 100.5t32.5 88.5q87 41 234 41q103 0 160 -23v-598q0 -105 35.5 -153.5t125.5 -48.5t172 96v497h-143q2 43 16 98.5t33 90.5q87 41 234 41q102 0 159 -23v-655q0 -85 17 -152h147q2 -10 2 -34q0 -28 -11 -70.5t-24 -67.5q-53 -19 -157.5 -30t-194.5 -11 q-43 76 -59 179h-19q-100 -189 -313 -189q-56 0 -99.5 8.5t-87.5 33t-72.5 66t-46.5 110.5t-18 163q0 213 13 442h-152zM223 1284l264 266l213 11l281 -304q-20 -34 -64 -71t-81 -49l-250 211l-264 -218q-31 26 -59 70t-40 84z" />
<glyph unicode="&#xfc;" horiz-adv-x="1275" d="M8 788q2 44 16.5 100.5t32.5 88.5q87 41 234 41q103 0 160 -23v-598q0 -105 35.5 -153.5t125.5 -48.5t172 96v497h-143q2 43 16 98.5t33 90.5q87 41 234 41q102 0 159 -23v-655q0 -85 17 -152h147q2 -10 2 -34q0 -28 -11 -70.5t-24 -67.5q-53 -19 -157.5 -30t-194.5 -11 q-43 76 -59 179h-19q-100 -189 -313 -189q-56 0 -99.5 8.5t-87.5 33t-72.5 66t-46.5 110.5t-18 163q0 213 13 442h-152zM150 1333q0 71 46 113.5t119 42.5t117.5 -41t44.5 -115q0 -81 -44.5 -124.5t-117.5 -43.5q-165 0 -165 168zM696 1333q0 71 46.5 113.5t119.5 42.5 t117.5 -41t44.5 -115q0 -81 -44.5 -124.5t-117.5 -43.5q-166 0 -166 168z" />
<glyph unicode="&#xfd;" horiz-adv-x="1155" d="M8 999h539q0 -92 -33 -182q-41 -19 -115 -33q52 -69 80 -139l88 -231q38 -101 47 -191h25q9 88 41 191l63 223q22 82 60 151q-57 17 -86 37q-25 68 -25 174h441q0 -41 -11 -98t-24 -92q-38 -17 -80 -21l-119 -317q-151 -403 -244 -580q-71 -137 -194 -248.5t-254 -150.5 q-37 37 -72 102t-41 115q116 31 216 101t153 157l-348 817q-46 14 -82 45q-21 68 -25 170zM430 1225l258 360q54 0 145.5 -29t127.5 -63l-394 -379q-34 14 -75 48t-62 63z" />
<glyph unicode="&#xfe;" horiz-adv-x="1218" d="M6 -485q7 88 33 149q33 26 119 57v1559h-144q2 43 16.5 99.5t32.5 88.5q87 41 232 41q105 0 160 -22v-316q0 -127 -23 -297h31q92 160 282 160q60 0 115.5 -15t109.5 -51.5t94 -91t64.5 -140t24.5 -191.5q0 -266 -137 -423t-369 -157q-117 0 -192 53v-301 q123 -12 207 -43q9 -25 13 -76.5t-1 -82.5h-668zM449 195q56 -29 126 -29q267 0 267 340q0 313 -191 313q-69 0 -122 -32.5t-80 -75.5v-516z" />
<glyph unicode="&#xff;" horiz-adv-x="1155" d="M8 999h539q0 -92 -33 -182q-41 -19 -115 -33q52 -69 80 -139l88 -231q38 -101 47 -191h25q9 88 41 191l63 223q22 82 60 151q-57 17 -86 37q-25 68 -25 174h441q0 -41 -11 -98t-24 -92q-38 -17 -80 -21l-119 -317q-151 -403 -244 -580q-71 -137 -194 -248.5t-254 -150.5 q-37 37 -72 102t-41 115q116 31 216 101t153 157l-348 817q-46 14 -82 45q-21 68 -25 170zM180 1333q0 71 46.5 113.5t119.5 42.5t117.5 -41t44.5 -115q0 -81 -44.5 -124.5t-117.5 -43.5q-166 0 -166 168zM727 1333q0 71 46.5 113.5t119.5 42.5t117.5 -41t44.5 -115 q0 -81 -44.5 -124.5t-117.5 -43.5q-166 0 -166 168z" />
<glyph unicode="&#x152;" horiz-adv-x="2154" d="M115 713q0 181 51 328t142 244t218.5 149.5t280.5 52.5q123 0 242 -35h948v-371q-134 0 -232 31q-16 58 -24 148h-379v-424h293q4 41 18 90q95 30 223 30v-419q-134 -12 -225 16q-14 44 -18 94h-291v-450h385q6 84 27 165q41 13 114.5 22t128.5 9v-393h-970 q-106 -33 -238 -33q-326 0 -510 197t-184 549zM442 739q0 -277 101 -423t299 -146q121 0 205 43v1018q-92 55 -224 55q-190 0 -285.5 -141.5t-95.5 -405.5z" />
<glyph unicode="&#x153;" horiz-adv-x="1783" d="M66 494q0 256 141.5 398t378.5 142q118 0 208.5 -36t141.5 -99h18q53 62 142 98.5t200 36.5q400 0 400 -485q0 -57 -6 -119h-619q15 -118 87.5 -180t197.5 -62q70 0 171 16.5t159 37.5q4 -41 -11.5 -100.5t-40.5 -98.5q-64 -34 -157 -56t-197 -22q-236 0 -342 129h-18 q-44 -60 -132 -94.5t-210 -34.5q-238 0 -375 139.5t-137 389.5zM371 510q0 -161 57.5 -256.5t157.5 -95.5q97 0 149.5 93.5t52.5 248.5q0 160 -54.5 252t-155.5 92q-99 0 -153 -90t-54 -244zM1071 618h332q5 44 -0.5 84.5t-21 76t-47 56.5t-74.5 21q-76 0 -125.5 -64.5 t-63.5 -173.5z" />
<glyph unicode="&#x178;" horiz-adv-x="1476" d="M35 1452h633q0 -88 -33 -197q-40 -11 -121 -16q46 -34 76 -96l108 -211q56 -106 68 -209h25q13 110 67 209l119 217q28 49 78 92q-60 8 -103 25q-10 33 -18 90t-8 96h518q0 -42 -8.5 -102.5t-20.5 -94.5q-48 -13 -106 -16l-422 -690v-332q104 -7 203 -29q10 -33 13 -95 t-3 -93h-748q3 36 18.5 92t30.5 90q74 23 170 35v311l-401 713q-53 7 -102 25q-26 79 -33 186zM270 1731q0 74 48 116.5t126 42.5t124 -41t46 -118q0 -82 -46.5 -126t-123.5 -44q-174 0 -174 170zM944 1731q0 74 48 116.5t126 42.5q77 0 123.5 -41t46.5 -118 q0 -82 -46.5 -126t-123.5 -44q-174 0 -174 170z" />
<glyph unicode="&#x2c6;" horiz-adv-x="968" d="M86 1284l264 266l213 11l281 -304q-19 -33 -64 -70.5t-82 -49.5l-249 211l-265 -218q-30 26 -58 70t-40 84z" />
<glyph unicode="&#x2dc;" horiz-adv-x="1003" d="M84 1270q13 98 80.5 161.5t187.5 63.5q51 0 96.5 -13.5t73.5 -30.5t65.5 -30.5t74.5 -13.5q70 0 96 76q100 0 164 -35q0 -51 -16.5 -99t-49 -88.5t-88 -65t-125.5 -24.5q-47 0 -90.5 14.5t-72 32t-68.5 32t-80 14.5q-67 0 -86 -74q-43 0 -88 23t-74 57z" />
<glyph unicode="&#x2000;" horiz-adv-x="982" />
<glyph unicode="&#x2001;" horiz-adv-x="1964" />
<glyph unicode="&#x2002;" horiz-adv-x="982" />
<glyph unicode="&#x2003;" horiz-adv-x="1964" />
<glyph unicode="&#x2004;" horiz-adv-x="654" />
<glyph unicode="&#x2005;" horiz-adv-x="491" />
<glyph unicode="&#x2006;" horiz-adv-x="327" />
<glyph unicode="&#x2007;" horiz-adv-x="327" />
<glyph unicode="&#x2008;" horiz-adv-x="245" />
<glyph unicode="&#x2009;" horiz-adv-x="392" />
<glyph unicode="&#x200a;" horiz-adv-x="109" />
<glyph unicode="&#x2010;" horiz-adv-x="831" d="M109 446q0 51 10.5 121t25.5 117h539q16 -66 16 -168q0 -30 -4 -70h-587z" />
<glyph unicode="&#x2011;" horiz-adv-x="831" d="M109 446q0 51 10.5 121t25.5 117h539q16 -66 16 -168q0 -30 -4 -70h-587z" />
<glyph unicode="&#x2012;" horiz-adv-x="831" d="M109 446q0 51 10.5 121t25.5 117h539q16 -66 16 -168q0 -30 -4 -70h-587z" />
<glyph unicode="&#x2013;" horiz-adv-x="1024" d="M63 457q0 46 10.5 113t24.5 112h846q14 -65 14 -158q0 -31 -4 -67h-891z" />
<glyph unicode="&#x2014;" horiz-adv-x="2048" d="M106 457q0 46 10.5 113t24.5 112h1784q14 -58 14 -158q0 -31 -4 -67h-1829z" />
<glyph unicode="&#x2018;" horiz-adv-x="641" d="M84 899q35 145 100 296.5t138 270.5q73 31 182 31q-126 -305 -154 -465l123 -28q-9 -40 -41.5 -99.5t-62.5 -89.5q-64 6 -153.5 32t-131.5 52z" />
<glyph unicode="&#x2019;" horiz-adv-x="641" d="M168 1298q13 51 39.5 108.5t54.5 86.5q46 12 109 12q104 0 207 -35q-25 -150 -103 -346.5t-151 -314.5q-37 10 -78.5 33t-61.5 43q80 225 103 387z" />
<glyph unicode="&#x201a;" horiz-adv-x="641" d="M125 55q13 51 39.5 108.5t54.5 86.5q46 12 111 12q106 0 209 -35q-25 -149 -105 -349.5t-153 -319.5q-38 10 -81.5 33t-62.5 42q85 238 107 396z" />
<glyph unicode="&#x201c;" horiz-adv-x="1116" d="M78 899q35 146 100 297.5t137 269.5q73 31 177 31q-126 -305 -154 -465l123 -28q-9 -39 -42 -99t-63 -90q-63 6 -149 32t-129 52zM561 899q35 145 100 296.5t138 270.5q73 31 176 31q-126 -305 -154 -465l123 -28q-9 -40 -41.5 -99.5t-62.5 -89.5q-63 6 -150 32t-129 52z " />
<glyph unicode="&#x201d;" horiz-adv-x="1116" d="M160 1298q13 51 39.5 108.5t54.5 86.5q46 12 106 12q102 0 205 -35q-25 -150 -103 -346.5t-151 -314.5q-36 10 -75.5 33t-59.5 43q80 225 103 387zM627 1298q13 51 39.5 108.5t54.5 86.5q46 12 106 12q102 0 205 -35q-25 -150 -103 -346.5t-151 -314.5q-36 10 -75.5 33 t-59.5 43q78 221 102 387z" />
<glyph unicode="&#x201e;" horiz-adv-x="1116" d="M137 55q13 51 39.5 108.5t54.5 86.5q47 12 107 12q102 0 205 -35q-25 -149 -105 -349.5t-153 -319.5q-36 10 -75.5 32.5t-59.5 42.5q83 234 106 396zM621 55q13 51 39.5 108.5t54.5 86.5q47 12 106 12q102 0 205 -35q-25 -149 -105 -349.5t-153 -319.5q-36 10 -75.5 32.5 t-59.5 42.5q83 234 106 396z" />
<glyph unicode="&#x2022;" horiz-adv-x="1249" d="M264 508q0 159 105 258.5t270 99.5q161 0 261.5 -96t100.5 -262q0 -181 -100 -284t-262 -103q-182 0 -278.5 100t-96.5 287z" />
<glyph unicode="&#x2026;" horiz-adv-x="2015" d="M143 174q0 84 54 135t141 51q85 0 136.5 -49t51.5 -137q0 -95 -51.5 -148t-136.5 -53q-95 0 -145 51.5t-50 149.5zM815 174q0 84 54 135t141 51q85 0 136.5 -49t51.5 -137q0 -95 -51.5 -148t-136.5 -53q-95 0 -145 51.5t-50 149.5zM1487 174q0 84 53.5 135t140.5 51 q85 0 137 -49t52 -137q0 -95 -52 -148t-137 -53q-95 0 -144.5 51.5t-49.5 149.5z" />
<glyph unicode="&#x202f;" horiz-adv-x="392" />
<glyph unicode="&#x2039;" horiz-adv-x="880" d="M160 528q78 188 219 414q160 45 309 45q-120 -246 -194 -459q61 -186 174 -407q-47 -22 -122.5 -40.5t-131.5 -19.5q-171 269 -254 467z" />
<glyph unicode="&#x203a;" horiz-adv-x="880" d="M201 934q47 23 119.5 39t132.5 16q170 -266 252 -461q-79 -181 -254 -467q-58 3 -127.5 23t-120.5 47q125 268 170 397q-76 210 -172 406z" />
<glyph unicode="&#x205f;" horiz-adv-x="491" />
<glyph unicode="&#x20ac;" horiz-adv-x="1265" d="M49 573q0 71 25 156h121q56 196 221 309t405 113q204 0 381 -94q6 -30 6 -78q0 -95 -30 -191q-61 0 -142.5 19t-130.5 45v86q-43 16 -110 16q-99 0 -172.5 -56t-104.5 -169h412q6 -24 8 -73t-2 -83h-887zM53 324q0 70 25 155h856q6 -24 8 -72.5t-2 -82.5h-391 q79 -150 287 -150q75 0 169 17t173 47q3 -39 -10.5 -99t-34.5 -94q-187 -86 -373 -86q-199 0 -345.5 99t-207.5 266h-154z" />
<glyph unicode="&#x2122;" horiz-adv-x="2222" d="M121 1196v256h792v-254q-87 0 -151 12q-15 45 -23 119h-127v-366q71 -4 113 -17q6 -19 7.5 -59.5t-3.5 -63.5h-434q4 66 29 121q49 14 94 19v366h-125q-8 -70 -19 -110q-62 -23 -153 -23zM1012 823q0 65 20 123q26 9 74 17v348q-72 12 -86 16q-9 66 -2 125h377l114 -365 q24 -78 33 -143h19q14 79 34 143l119 365h352q7 -54 -2 -127q-50 -12 -84 -12v-348q64 -4 101 -17q8 -32 8 -69q0 -35 -6 -56h-357q0 68 19 123q35 12 65 15v368h-18q-9 -74 -57 -201l-111 -315h-209l-106 332q-40 122 -47 184h-19v-368q48 -4 78 -17q6 -19 7 -58t-5 -63 h-311z" />
<glyph unicode="&#x25fc;" horiz-adv-x="1003" d="M0 0v1004h1004v-1004h-1004z" />
<glyph unicode="&#xfb01;" horiz-adv-x="1470" d="M43 797q0 38 11.5 97.5t25.5 90.5q50 31 119 47v17q0 239 162 358t448 119q234 0 438 -66q8 -39 8 -98q0 -128 -32 -219q-55 0 -145.5 19t-125.5 40v121q-82 29 -159 29q-141 0 -219 -77.5t-78 -221.5v-54h239q8 -33 11.5 -94t-1.5 -108h-249v-594q111 -12 182 -43 q9 -24 13 -77t-1 -83h-643q7 89 33 150q42 33 119 57v590h-156zM819 0q7 89 33 150q44 35 119 57v581h-144q0 45 12.5 100.5t32.5 88.5q87 41 234 41q104 0 162 -23v-798q92 -13 145 -37q10 -38 10 -115q0 -31 -2 -45h-602z" />
<glyph unicode="&#xfb02;" horiz-adv-x="1468" d="M43 797q0 38 11.5 97.5t25.5 90.5q50 31 119 47v17q0 236 164 356.5t448 120.5q236 0 455 -74v-1255q92 -13 145 -37q10 -38 10 -115q0 -31 -2 -45h-602q7 89 33 150q33 26 119 57v1106q-86 35 -168 35q-144 0 -224.5 -77t-80.5 -218v-54h239q8 -33 11.5 -94t-1.5 -108 h-249v-594q111 -12 182 -43q9 -24 13 -77t-1 -83h-643q7 89 33 150q42 33 119 57v590h-156z" />
<glyph unicode="&#xfb03;" horiz-adv-x="2297" d="M43 797q0 38 11.5 97.5t25.5 90.5q50 31 119 47v35q0 221 118.5 329.5t331.5 108.5q70 0 157.5 -14.5t149.5 -38.5q9 -41 9 -94q0 -94 -33 -219q-51 3 -121 18t-106 33v121q-32 16 -74 16q-69 0 -102 -57t-33 -176v-95h530v50q0 239 162 358t448 119q235 0 439 -66 q8 -39 8 -98q0 -125 -33 -219q-55 0 -145 19t-125 40v121q-82 29 -160 29q-141 0 -219 -77.5t-78 -221.5v-54h240q8 -33 11.5 -94t-1.5 -108h-250v-594q111 -12 182 -43q9 -25 13 -77t0 -83h-644q7 89 33 150q42 33 119 57v590h-530v-594q46 -5 104.5 -17.5t89.5 -25.5 q9 -24 13 -77t-1 -83h-655q7 89 33 150q42 33 119 57v590h-156zM1647 0q8 92 32 150q44 35 119 57v581h-143q0 45 12.5 100.5t32.5 88.5q87 41 233 41q105 0 162 -23v-798q94 -13 146 -37q10 -45 10 -117q0 -29 -2 -43h-602z" />
<glyph unicode="&#xfb04;" horiz-adv-x="2295" d="M43 797q0 38 11.5 97.5t25.5 90.5q50 31 119 47v35q0 221 118.5 329.5t331.5 108.5q70 0 157.5 -14.5t149.5 -38.5q9 -41 9 -94q0 -94 -33 -219q-51 3 -121 18t-106 33v121q-32 16 -74 16q-69 0 -102 -57t-33 -176v-95h530v50q0 236 164 356.5t448 120.5q236 0 455 -74 v-1255q92 -13 145 -37q11 -49 11 -117q0 -29 -2 -43h-602q8 92 32 150q33 26 119 57v1106q-86 35 -168 35q-144 0 -224.5 -77t-80.5 -218v-54h240q8 -33 11.5 -94t-1.5 -108h-250v-594q111 -12 182 -43q9 -25 13 -77t0 -83h-644q7 89 33 150q42 33 119 57v590h-530v-594 q46 -5 104.5 -17.5t89.5 -25.5q9 -24 13 -77t-1 -83h-655q7 89 33 150q42 33 119 57v590h-156z" />
</font>
</defs>
</svg>
